%TF.GenerationSoftware,KiCad,Pcbnew,8.0.1*%
%TF.CreationDate,2024-04-03T20:26:05-05:00*%
%TF.ProjectId,meshtastic-diy,6d657368-7461-4737-9469-632d6469792e,2.1*%
%TF.SameCoordinates,Original*%
%TF.FileFunction,Soldermask,Top*%
%TF.FilePolarity,Negative*%
%FSLAX46Y46*%
G04 Gerber Fmt 4.6, Leading zero omitted, Abs format (unit mm)*
G04 Created by KiCad (PCBNEW 8.0.1) date 2024-04-03 20:26:05*
%MOMM*%
%LPD*%
G01*
G04 APERTURE LIST*
G04 Aperture macros list*
%AMRoundRect*
0 Rectangle with rounded corners*
0 $1 Rounding radius*
0 $2 $3 $4 $5 $6 $7 $8 $9 X,Y pos of 4 corners*
0 Add a 4 corners polygon primitive as box body*
4,1,4,$2,$3,$4,$5,$6,$7,$8,$9,$2,$3,0*
0 Add four circle primitives for the rounded corners*
1,1,$1+$1,$2,$3*
1,1,$1+$1,$4,$5*
1,1,$1+$1,$6,$7*
1,1,$1+$1,$8,$9*
0 Add four rect primitives between the rounded corners*
20,1,$1+$1,$2,$3,$4,$5,0*
20,1,$1+$1,$4,$5,$6,$7,0*
20,1,$1+$1,$6,$7,$8,$9,0*
20,1,$1+$1,$8,$9,$2,$3,0*%
G04 Aperture macros list end*
%ADD10C,0.010000*%
%ADD11R,0.900000X0.800000*%
%ADD12RoundRect,0.200000X-0.275000X0.200000X-0.275000X-0.200000X0.275000X-0.200000X0.275000X0.200000X0*%
%ADD13RoundRect,0.150000X-0.825000X-0.150000X0.825000X-0.150000X0.825000X0.150000X-0.825000X0.150000X0*%
%ADD14RoundRect,0.225000X-0.250000X0.225000X-0.250000X-0.225000X0.250000X-0.225000X0.250000X0.225000X0*%
%ADD15R,1.500000X2.500000*%
%ADD16RoundRect,0.225000X0.250000X-0.225000X0.250000X0.225000X-0.250000X0.225000X-0.250000X-0.225000X0*%
%ADD17RoundRect,0.200000X0.275000X-0.200000X0.275000X0.200000X-0.275000X0.200000X-0.275000X-0.200000X0*%
%ADD18RoundRect,0.218750X-0.218750X-0.256250X0.218750X-0.256250X0.218750X0.256250X-0.218750X0.256250X0*%
%ADD19RoundRect,0.200000X-0.200000X-0.275000X0.200000X-0.275000X0.200000X0.275000X-0.200000X0.275000X0*%
%ADD20RoundRect,0.200000X0.200000X0.275000X-0.200000X0.275000X-0.200000X-0.275000X0.200000X-0.275000X0*%
%ADD21RoundRect,0.225000X-0.225000X-0.250000X0.225000X-0.250000X0.225000X0.250000X-0.225000X0.250000X0*%
%ADD22C,1.448000*%
%ADD23RoundRect,0.225000X0.225000X0.250000X-0.225000X0.250000X-0.225000X-0.250000X0.225000X-0.250000X0*%
%ADD24R,1.000000X1.000000*%
%ADD25R,2.200000X1.050000*%
%ADD26R,0.800000X0.900000*%
%ADD27C,1.000000*%
%ADD28R,0.650000X1.060000*%
%ADD29O,1.700000X1.700000*%
%ADD30R,1.700000X1.700000*%
%ADD31R,3.700000X3.700000*%
%ADD32R,1.500000X0.900000*%
%ADD33R,0.900000X1.500000*%
G04 APERTURE END LIST*
D10*
%TO.C,SYM1*%
X142847411Y-103257558D02*
X142856604Y-103263477D01*
X142871101Y-103273030D01*
X142890560Y-103285985D01*
X142914637Y-103302110D01*
X142942989Y-103321173D01*
X142975273Y-103342944D01*
X143011147Y-103367191D01*
X143050267Y-103393682D01*
X143092291Y-103422185D01*
X143136874Y-103452470D01*
X143183675Y-103484304D01*
X143232350Y-103517456D01*
X143271534Y-103544174D01*
X143329374Y-103583629D01*
X143390697Y-103625455D01*
X143454680Y-103669090D01*
X143520496Y-103713970D01*
X143587322Y-103759535D01*
X143654333Y-103805221D01*
X143720704Y-103850466D01*
X143785609Y-103894708D01*
X143848224Y-103937385D01*
X143907725Y-103977934D01*
X143963286Y-104015793D01*
X144014082Y-104050400D01*
X144037029Y-104066031D01*
X144089742Y-104101988D01*
X144139238Y-104135857D01*
X144185248Y-104167450D01*
X144227504Y-104196579D01*
X144265739Y-104223059D01*
X144299683Y-104246701D01*
X144329069Y-104267319D01*
X144353628Y-104284725D01*
X144373092Y-104298733D01*
X144387194Y-104309155D01*
X144395664Y-104315805D01*
X144397607Y-104317558D01*
X144417469Y-104342608D01*
X144431849Y-104371157D01*
X144440407Y-104401865D01*
X144442799Y-104433393D01*
X144438686Y-104464400D01*
X144436785Y-104471314D01*
X144426612Y-104497004D01*
X144412594Y-104521399D01*
X144396166Y-104542238D01*
X144385097Y-104552630D01*
X144380790Y-104555746D01*
X144370852Y-104562708D01*
X144355589Y-104573307D01*
X144335307Y-104587333D01*
X144310313Y-104604576D01*
X144280913Y-104624826D01*
X144247414Y-104647873D01*
X144210122Y-104673508D01*
X144169345Y-104701520D01*
X144125388Y-104731699D01*
X144078558Y-104763837D01*
X144029162Y-104797722D01*
X143977506Y-104833146D01*
X143923896Y-104869898D01*
X143868640Y-104907768D01*
X143812044Y-104946546D01*
X143754414Y-104986024D01*
X143696057Y-105025990D01*
X143637280Y-105066235D01*
X143578388Y-105106550D01*
X143519689Y-105146724D01*
X143461489Y-105186547D01*
X143404095Y-105225810D01*
X143347813Y-105264302D01*
X143292950Y-105301815D01*
X143239812Y-105338137D01*
X143188706Y-105373060D01*
X143139938Y-105406373D01*
X143093815Y-105437867D01*
X143050644Y-105467331D01*
X143010730Y-105494556D01*
X142974381Y-105519332D01*
X142941904Y-105541449D01*
X142913604Y-105560698D01*
X142889788Y-105576867D01*
X142870763Y-105589749D01*
X142856835Y-105599132D01*
X142848311Y-105604807D01*
X142845516Y-105606569D01*
X142842880Y-105603916D01*
X142836703Y-105595982D01*
X142827496Y-105583506D01*
X142815770Y-105567228D01*
X142802036Y-105547888D01*
X142786804Y-105526225D01*
X142770586Y-105502979D01*
X142753893Y-105478890D01*
X142737235Y-105454697D01*
X142721123Y-105431140D01*
X142706068Y-105408958D01*
X142692581Y-105388892D01*
X142681173Y-105371680D01*
X142672355Y-105358062D01*
X142666637Y-105348779D01*
X142664530Y-105344569D01*
X142664529Y-105344543D01*
X142664603Y-105344131D01*
X142664998Y-105343525D01*
X142665928Y-105342578D01*
X142667607Y-105341142D01*
X142670249Y-105339070D01*
X142674069Y-105336214D01*
X142679280Y-105332428D01*
X142686096Y-105327563D01*
X142694732Y-105321472D01*
X142705401Y-105314008D01*
X142718318Y-105305023D01*
X142733696Y-105294370D01*
X142751750Y-105281901D01*
X142772694Y-105267469D01*
X142796742Y-105250927D01*
X142824108Y-105232126D01*
X142855006Y-105210920D01*
X142889649Y-105187162D01*
X142928254Y-105160703D01*
X142971032Y-105131396D01*
X143018198Y-105099094D01*
X143069967Y-105063649D01*
X143126553Y-105024914D01*
X143188169Y-104982742D01*
X143255030Y-104936985D01*
X143327349Y-104887495D01*
X143405341Y-104834126D01*
X143444784Y-104807135D01*
X143501648Y-104768204D01*
X143556874Y-104730357D01*
X143610166Y-104693797D01*
X143661229Y-104658729D01*
X143709766Y-104625357D01*
X143755483Y-104593886D01*
X143798083Y-104564519D01*
X143837270Y-104537462D01*
X143872750Y-104512917D01*
X143904226Y-104491091D01*
X143931403Y-104472186D01*
X143953985Y-104456407D01*
X143971676Y-104443959D01*
X143984181Y-104435046D01*
X143991203Y-104429871D01*
X143992699Y-104428573D01*
X143989647Y-104426282D01*
X143980867Y-104420090D01*
X143966628Y-104410184D01*
X143947202Y-104396747D01*
X143922858Y-104379966D01*
X143893867Y-104360025D01*
X143860497Y-104337108D01*
X143823019Y-104311402D01*
X143781704Y-104283090D01*
X143736821Y-104252359D01*
X143688641Y-104219393D01*
X143637433Y-104184377D01*
X143583467Y-104147497D01*
X143527014Y-104108936D01*
X143468344Y-104068881D01*
X143407726Y-104027516D01*
X143345431Y-103985026D01*
X143325961Y-103971750D01*
X143263220Y-103928971D01*
X143202078Y-103887278D01*
X143142803Y-103846855D01*
X143085666Y-103807887D01*
X143030935Y-103770556D01*
X142978881Y-103735048D01*
X142929773Y-103701545D01*
X142883881Y-103670233D01*
X142841474Y-103641295D01*
X142802823Y-103614915D01*
X142768196Y-103591277D01*
X142737864Y-103570566D01*
X142712096Y-103552965D01*
X142691161Y-103538657D01*
X142675330Y-103527829D01*
X142664872Y-103520662D01*
X142660057Y-103517342D01*
X142659752Y-103517122D01*
X142661634Y-103514077D01*
X142667220Y-103505666D01*
X142676094Y-103492497D01*
X142687842Y-103475182D01*
X142702050Y-103454328D01*
X142718305Y-103430546D01*
X142736190Y-103404446D01*
X142749023Y-103385757D01*
X142768000Y-103358315D01*
X142785825Y-103332870D01*
X142802058Y-103310025D01*
X142816262Y-103290383D01*
X142827996Y-103274546D01*
X142836823Y-103263118D01*
X142842303Y-103256702D01*
X142843866Y-103255503D01*
X142847411Y-103257558D01*
G36*
X142847411Y-103257558D02*
G01*
X142856604Y-103263477D01*
X142871101Y-103273030D01*
X142890560Y-103285985D01*
X142914637Y-103302110D01*
X142942989Y-103321173D01*
X142975273Y-103342944D01*
X143011147Y-103367191D01*
X143050267Y-103393682D01*
X143092291Y-103422185D01*
X143136874Y-103452470D01*
X143183675Y-103484304D01*
X143232350Y-103517456D01*
X143271534Y-103544174D01*
X143329374Y-103583629D01*
X143390697Y-103625455D01*
X143454680Y-103669090D01*
X143520496Y-103713970D01*
X143587322Y-103759535D01*
X143654333Y-103805221D01*
X143720704Y-103850466D01*
X143785609Y-103894708D01*
X143848224Y-103937385D01*
X143907725Y-103977934D01*
X143963286Y-104015793D01*
X144014082Y-104050400D01*
X144037029Y-104066031D01*
X144089742Y-104101988D01*
X144139238Y-104135857D01*
X144185248Y-104167450D01*
X144227504Y-104196579D01*
X144265739Y-104223059D01*
X144299683Y-104246701D01*
X144329069Y-104267319D01*
X144353628Y-104284725D01*
X144373092Y-104298733D01*
X144387194Y-104309155D01*
X144395664Y-104315805D01*
X144397607Y-104317558D01*
X144417469Y-104342608D01*
X144431849Y-104371157D01*
X144440407Y-104401865D01*
X144442799Y-104433393D01*
X144438686Y-104464400D01*
X144436785Y-104471314D01*
X144426612Y-104497004D01*
X144412594Y-104521399D01*
X144396166Y-104542238D01*
X144385097Y-104552630D01*
X144380790Y-104555746D01*
X144370852Y-104562708D01*
X144355589Y-104573307D01*
X144335307Y-104587333D01*
X144310313Y-104604576D01*
X144280913Y-104624826D01*
X144247414Y-104647873D01*
X144210122Y-104673508D01*
X144169345Y-104701520D01*
X144125388Y-104731699D01*
X144078558Y-104763837D01*
X144029162Y-104797722D01*
X143977506Y-104833146D01*
X143923896Y-104869898D01*
X143868640Y-104907768D01*
X143812044Y-104946546D01*
X143754414Y-104986024D01*
X143696057Y-105025990D01*
X143637280Y-105066235D01*
X143578388Y-105106550D01*
X143519689Y-105146724D01*
X143461489Y-105186547D01*
X143404095Y-105225810D01*
X143347813Y-105264302D01*
X143292950Y-105301815D01*
X143239812Y-105338137D01*
X143188706Y-105373060D01*
X143139938Y-105406373D01*
X143093815Y-105437867D01*
X143050644Y-105467331D01*
X143010730Y-105494556D01*
X142974381Y-105519332D01*
X142941904Y-105541449D01*
X142913604Y-105560698D01*
X142889788Y-105576867D01*
X142870763Y-105589749D01*
X142856835Y-105599132D01*
X142848311Y-105604807D01*
X142845516Y-105606569D01*
X142842880Y-105603916D01*
X142836703Y-105595982D01*
X142827496Y-105583506D01*
X142815770Y-105567228D01*
X142802036Y-105547888D01*
X142786804Y-105526225D01*
X142770586Y-105502979D01*
X142753893Y-105478890D01*
X142737235Y-105454697D01*
X142721123Y-105431140D01*
X142706068Y-105408958D01*
X142692581Y-105388892D01*
X142681173Y-105371680D01*
X142672355Y-105358062D01*
X142666637Y-105348779D01*
X142664530Y-105344569D01*
X142664529Y-105344543D01*
X142664603Y-105344131D01*
X142664998Y-105343525D01*
X142665928Y-105342578D01*
X142667607Y-105341142D01*
X142670249Y-105339070D01*
X142674069Y-105336214D01*
X142679280Y-105332428D01*
X142686096Y-105327563D01*
X142694732Y-105321472D01*
X142705401Y-105314008D01*
X142718318Y-105305023D01*
X142733696Y-105294370D01*
X142751750Y-105281901D01*
X142772694Y-105267469D01*
X142796742Y-105250927D01*
X142824108Y-105232126D01*
X142855006Y-105210920D01*
X142889649Y-105187162D01*
X142928254Y-105160703D01*
X142971032Y-105131396D01*
X143018198Y-105099094D01*
X143069967Y-105063649D01*
X143126553Y-105024914D01*
X143188169Y-104982742D01*
X143255030Y-104936985D01*
X143327349Y-104887495D01*
X143405341Y-104834126D01*
X143444784Y-104807135D01*
X143501648Y-104768204D01*
X143556874Y-104730357D01*
X143610166Y-104693797D01*
X143661229Y-104658729D01*
X143709766Y-104625357D01*
X143755483Y-104593886D01*
X143798083Y-104564519D01*
X143837270Y-104537462D01*
X143872750Y-104512917D01*
X143904226Y-104491091D01*
X143931403Y-104472186D01*
X143953985Y-104456407D01*
X143971676Y-104443959D01*
X143984181Y-104435046D01*
X143991203Y-104429871D01*
X143992699Y-104428573D01*
X143989647Y-104426282D01*
X143980867Y-104420090D01*
X143966628Y-104410184D01*
X143947202Y-104396747D01*
X143922858Y-104379966D01*
X143893867Y-104360025D01*
X143860497Y-104337108D01*
X143823019Y-104311402D01*
X143781704Y-104283090D01*
X143736821Y-104252359D01*
X143688641Y-104219393D01*
X143637433Y-104184377D01*
X143583467Y-104147497D01*
X143527014Y-104108936D01*
X143468344Y-104068881D01*
X143407726Y-104027516D01*
X143345431Y-103985026D01*
X143325961Y-103971750D01*
X143263220Y-103928971D01*
X143202078Y-103887278D01*
X143142803Y-103846855D01*
X143085666Y-103807887D01*
X143030935Y-103770556D01*
X142978881Y-103735048D01*
X142929773Y-103701545D01*
X142883881Y-103670233D01*
X142841474Y-103641295D01*
X142802823Y-103614915D01*
X142768196Y-103591277D01*
X142737864Y-103570566D01*
X142712096Y-103552965D01*
X142691161Y-103538657D01*
X142675330Y-103527829D01*
X142664872Y-103520662D01*
X142660057Y-103517342D01*
X142659752Y-103517122D01*
X142661634Y-103514077D01*
X142667220Y-103505666D01*
X142676094Y-103492497D01*
X142687842Y-103475182D01*
X142702050Y-103454328D01*
X142718305Y-103430546D01*
X142736190Y-103404446D01*
X142749023Y-103385757D01*
X142768000Y-103358315D01*
X142785825Y-103332870D01*
X142802058Y-103310025D01*
X142816262Y-103290383D01*
X142827996Y-103274546D01*
X142836823Y-103263118D01*
X142842303Y-103256702D01*
X142843866Y-103255503D01*
X142847411Y-103257558D01*
G37*
X142851959Y-102111020D02*
X142861151Y-102116957D01*
X142875677Y-102126545D01*
X142895209Y-102139563D01*
X142919419Y-102155789D01*
X142947978Y-102175002D01*
X142980558Y-102196978D01*
X143016831Y-102221497D01*
X143056467Y-102248336D01*
X143099139Y-102277274D01*
X143144518Y-102308088D01*
X143192276Y-102340558D01*
X143242085Y-102374461D01*
X143293615Y-102409575D01*
X143313757Y-102423311D01*
X143373485Y-102464050D01*
X143436376Y-102506948D01*
X143501674Y-102551489D01*
X143568624Y-102597156D01*
X143636469Y-102643435D01*
X143704454Y-102689809D01*
X143771822Y-102735764D01*
X143837819Y-102780783D01*
X143901687Y-102824350D01*
X143962671Y-102865951D01*
X144020015Y-102905069D01*
X144072963Y-102941189D01*
X144120759Y-102973795D01*
X144125929Y-102977322D01*
X144171350Y-103008347D01*
X144215060Y-103038282D01*
X144256689Y-103066867D01*
X144295866Y-103093846D01*
X144332221Y-103118959D01*
X144365382Y-103141950D01*
X144394980Y-103162561D01*
X144420644Y-103180533D01*
X144442002Y-103195610D01*
X144458686Y-103207533D01*
X144470323Y-103216044D01*
X144476543Y-103220885D01*
X144477523Y-103221913D01*
X144475460Y-103225752D01*
X144469706Y-103234953D01*
X144460673Y-103248891D01*
X144448775Y-103266944D01*
X144434424Y-103288487D01*
X144418034Y-103312896D01*
X144400018Y-103339549D01*
X144385316Y-103361178D01*
X144293486Y-103495967D01*
X144260508Y-103473103D01*
X144253297Y-103468140D01*
X144240495Y-103459371D01*
X144222511Y-103447075D01*
X144199754Y-103431529D01*
X144172630Y-103413012D01*
X144141548Y-103391802D01*
X144106916Y-103368179D01*
X144069143Y-103342420D01*
X144028636Y-103314803D01*
X143985804Y-103285608D01*
X143941054Y-103255112D01*
X143894795Y-103223594D01*
X143861043Y-103200602D01*
X143807506Y-103164131D01*
X143748919Y-103124215D01*
X143686228Y-103081497D01*
X143620378Y-103036622D01*
X143552313Y-102990234D01*
X143482980Y-102942978D01*
X143413323Y-102895497D01*
X143344288Y-102848436D01*
X143276820Y-102802440D01*
X143211864Y-102758152D01*
X143150366Y-102716217D01*
X143097229Y-102679980D01*
X143048510Y-102646756D01*
X143001193Y-102614495D01*
X142955653Y-102583451D01*
X142912262Y-102553880D01*
X142871394Y-102526034D01*
X142833422Y-102500168D01*
X142798720Y-102476536D01*
X142767661Y-102455393D01*
X142740618Y-102436993D01*
X142717965Y-102421590D01*
X142700074Y-102409438D01*
X142687321Y-102400792D01*
X142680076Y-102395906D01*
X142679036Y-102395212D01*
X142668666Y-102388047D01*
X142661265Y-102382333D01*
X142658383Y-102379268D01*
X142658383Y-102379222D01*
X142660420Y-102375868D01*
X142666165Y-102367151D01*
X142675205Y-102353680D01*
X142687127Y-102336065D01*
X142701517Y-102314914D01*
X142717961Y-102290838D01*
X142736046Y-102264446D01*
X142750949Y-102242757D01*
X142771003Y-102213776D01*
X142789601Y-102187233D01*
X142806350Y-102163668D01*
X142820856Y-102143623D01*
X142832724Y-102127638D01*
X142841561Y-102116253D01*
X142846974Y-102110010D01*
X142848430Y-102108957D01*
X142851959Y-102111020D01*
G36*
X142851959Y-102111020D02*
G01*
X142861151Y-102116957D01*
X142875677Y-102126545D01*
X142895209Y-102139563D01*
X142919419Y-102155789D01*
X142947978Y-102175002D01*
X142980558Y-102196978D01*
X143016831Y-102221497D01*
X143056467Y-102248336D01*
X143099139Y-102277274D01*
X143144518Y-102308088D01*
X143192276Y-102340558D01*
X143242085Y-102374461D01*
X143293615Y-102409575D01*
X143313757Y-102423311D01*
X143373485Y-102464050D01*
X143436376Y-102506948D01*
X143501674Y-102551489D01*
X143568624Y-102597156D01*
X143636469Y-102643435D01*
X143704454Y-102689809D01*
X143771822Y-102735764D01*
X143837819Y-102780783D01*
X143901687Y-102824350D01*
X143962671Y-102865951D01*
X144020015Y-102905069D01*
X144072963Y-102941189D01*
X144120759Y-102973795D01*
X144125929Y-102977322D01*
X144171350Y-103008347D01*
X144215060Y-103038282D01*
X144256689Y-103066867D01*
X144295866Y-103093846D01*
X144332221Y-103118959D01*
X144365382Y-103141950D01*
X144394980Y-103162561D01*
X144420644Y-103180533D01*
X144442002Y-103195610D01*
X144458686Y-103207533D01*
X144470323Y-103216044D01*
X144476543Y-103220885D01*
X144477523Y-103221913D01*
X144475460Y-103225752D01*
X144469706Y-103234953D01*
X144460673Y-103248891D01*
X144448775Y-103266944D01*
X144434424Y-103288487D01*
X144418034Y-103312896D01*
X144400018Y-103339549D01*
X144385316Y-103361178D01*
X144293486Y-103495967D01*
X144260508Y-103473103D01*
X144253297Y-103468140D01*
X144240495Y-103459371D01*
X144222511Y-103447075D01*
X144199754Y-103431529D01*
X144172630Y-103413012D01*
X144141548Y-103391802D01*
X144106916Y-103368179D01*
X144069143Y-103342420D01*
X144028636Y-103314803D01*
X143985804Y-103285608D01*
X143941054Y-103255112D01*
X143894795Y-103223594D01*
X143861043Y-103200602D01*
X143807506Y-103164131D01*
X143748919Y-103124215D01*
X143686228Y-103081497D01*
X143620378Y-103036622D01*
X143552313Y-102990234D01*
X143482980Y-102942978D01*
X143413323Y-102895497D01*
X143344288Y-102848436D01*
X143276820Y-102802440D01*
X143211864Y-102758152D01*
X143150366Y-102716217D01*
X143097229Y-102679980D01*
X143048510Y-102646756D01*
X143001193Y-102614495D01*
X142955653Y-102583451D01*
X142912262Y-102553880D01*
X142871394Y-102526034D01*
X142833422Y-102500168D01*
X142798720Y-102476536D01*
X142767661Y-102455393D01*
X142740618Y-102436993D01*
X142717965Y-102421590D01*
X142700074Y-102409438D01*
X142687321Y-102400792D01*
X142680076Y-102395906D01*
X142679036Y-102395212D01*
X142668666Y-102388047D01*
X142661265Y-102382333D01*
X142658383Y-102379268D01*
X142658383Y-102379222D01*
X142660420Y-102375868D01*
X142666165Y-102367151D01*
X142675205Y-102353680D01*
X142687127Y-102336065D01*
X142701517Y-102314914D01*
X142717961Y-102290838D01*
X142736046Y-102264446D01*
X142750949Y-102242757D01*
X142771003Y-102213776D01*
X142789601Y-102187233D01*
X142806350Y-102163668D01*
X142820856Y-102143623D01*
X142832724Y-102127638D01*
X142841561Y-102116253D01*
X142846974Y-102110010D01*
X142848430Y-102108957D01*
X142851959Y-102111020D01*
G37*
%TD*%
D11*
%TO.C,Q1*%
X162500000Y-107500000D03*
X164500000Y-106550000D03*
X164500000Y-108450000D03*
%TD*%
D12*
%TO.C,R1*%
X166000000Y-108050000D03*
X166000000Y-106400000D03*
%TD*%
D13*
%TO.C,U2*%
X153224000Y-106807000D03*
X153224000Y-108077000D03*
X153224000Y-109347000D03*
X153224000Y-110617000D03*
X148274000Y-110617000D03*
X148274000Y-109347000D03*
X148274000Y-108077000D03*
X148274000Y-106807000D03*
%TD*%
D14*
%TO.C,C4*%
X155300000Y-109375000D03*
X155300000Y-107825000D03*
%TD*%
D15*
%TO.C,L2*%
X147650000Y-120050000D03*
X151350000Y-120050000D03*
%TD*%
D16*
%TO.C,C5*%
X145200000Y-90475000D03*
X145200000Y-92025000D03*
%TD*%
D11*
%TO.C,Q2*%
X159250000Y-112200000D03*
X161250000Y-111250000D03*
X161250000Y-113150000D03*
%TD*%
D17*
%TO.C,R3*%
X162700000Y-109975000D03*
X162700000Y-111625000D03*
%TD*%
D12*
%TO.C,R6*%
X156800000Y-109425000D03*
X156800000Y-107775000D03*
%TD*%
%TO.C,R2*%
X167500000Y-108050000D03*
X167500000Y-106400000D03*
%TD*%
D18*
%TO.C,D1*%
X157187500Y-111000000D03*
X155612500Y-111000000D03*
%TD*%
D19*
%TO.C,R14*%
X151900000Y-112800000D03*
X150250000Y-112800000D03*
%TD*%
D20*
%TO.C,R8*%
X155650000Y-112500000D03*
X157300000Y-112500000D03*
%TD*%
D14*
%TO.C,C10*%
X154175000Y-116225000D03*
X154175000Y-114675000D03*
%TD*%
%TO.C,C6*%
X145200000Y-96900000D03*
X145200000Y-95350000D03*
%TD*%
D12*
%TO.C,R9*%
X143900000Y-86675000D03*
X143900000Y-85025000D03*
%TD*%
D21*
%TO.C,C12*%
X148075000Y-116600000D03*
X146525000Y-116600000D03*
%TD*%
D14*
%TO.C,C1*%
X159300000Y-108150000D03*
X159300000Y-106600000D03*
%TD*%
D19*
%TO.C,R4*%
X157625000Y-114200000D03*
X155975000Y-114200000D03*
%TD*%
D22*
%TO.C,H2*%
X169000000Y-84100000D03*
%TD*%
D16*
%TO.C,C13*%
X143700000Y-90475000D03*
X143700000Y-92025000D03*
%TD*%
%TO.C,C2*%
X145400000Y-85075000D03*
X145400000Y-86625000D03*
%TD*%
D23*
%TO.C,C3*%
X143650000Y-89000000D03*
X145200000Y-89000000D03*
%TD*%
D24*
%TO.C,J4*%
X165300000Y-114600000D03*
D25*
X166800000Y-113125000D03*
X166800000Y-116075000D03*
D24*
X168300000Y-114600000D03*
%TD*%
D22*
%TO.C,H3*%
X144063500Y-124700000D03*
%TD*%
D26*
%TO.C,Q4*%
X163000000Y-119600000D03*
X163950000Y-121600000D03*
X162050000Y-121600000D03*
%TD*%
D12*
%TO.C,R16*%
X161300000Y-118225000D03*
X161300000Y-116575000D03*
%TD*%
D21*
%TO.C,C11*%
X148075000Y-115100000D03*
X146525000Y-115100000D03*
%TD*%
D19*
%TO.C,R7*%
X160875000Y-109700000D03*
X159225000Y-109700000D03*
%TD*%
D12*
%TO.C,R5*%
X160800000Y-108200000D03*
X160800000Y-106550000D03*
%TD*%
D27*
%TO.C,TP1*%
X150100000Y-83100000D03*
%TD*%
D19*
%TO.C,R13*%
X148125000Y-113600000D03*
X146475000Y-113600000D03*
%TD*%
D28*
%TO.C,U5*%
X150450000Y-114350000D03*
X152350000Y-114350000D03*
X152350000Y-116550000D03*
X151400000Y-116550000D03*
X150450000Y-116550000D03*
%TD*%
D27*
%TO.C,TP2*%
X155300000Y-83000000D03*
%TD*%
D12*
%TO.C,R10*%
X159700000Y-121725000D03*
X159700000Y-120075000D03*
%TD*%
%TO.C,R11*%
X158100000Y-121700000D03*
X158100000Y-120050000D03*
%TD*%
D26*
%TO.C,Q5*%
X158700000Y-116600000D03*
X159650000Y-118600000D03*
X157750000Y-118600000D03*
%TD*%
D12*
%TO.C,R15*%
X162800000Y-118225000D03*
X162800000Y-116575000D03*
%TD*%
%TO.C,R12*%
X165550000Y-121225000D03*
X165550000Y-119575000D03*
%TD*%
D17*
%TO.C,R17*%
X167050000Y-119575000D03*
X167050000Y-121225000D03*
%TD*%
D29*
%TO.C,*%
X151450000Y-81350000D03*
%TD*%
D30*
%TO.C,*%
X143830000Y-81350000D03*
%TD*%
D29*
%TO.C,*%
X148960000Y-124600000D03*
%TD*%
%TO.C,*%
X164150000Y-81350000D03*
%TD*%
%TO.C,*%
X166690000Y-81350000D03*
%TD*%
%TO.C,*%
X146370000Y-81350000D03*
%TD*%
%TO.C,*%
X161610000Y-81350000D03*
%TD*%
%TO.C,*%
X169230000Y-81350000D03*
%TD*%
%TO.C,*%
X161660000Y-124600000D03*
%TD*%
%TO.C,*%
X148910000Y-81350000D03*
%TD*%
%TO.C,*%
X154040000Y-124600000D03*
%TD*%
%TO.C,*%
X153990000Y-81350000D03*
%TD*%
%TO.C,*%
X164200000Y-124600000D03*
%TD*%
D31*
%TO.C,U1*%
X155100000Y-93530000D03*
D32*
X165350000Y-86190000D03*
X165350000Y-87460000D03*
X165350000Y-88730000D03*
X165350000Y-90000000D03*
X165350000Y-91270000D03*
X165350000Y-92540000D03*
X165350000Y-93810000D03*
X165350000Y-95080000D03*
X165350000Y-96350000D03*
X165350000Y-97620000D03*
X165350000Y-98890000D03*
X165350000Y-100160000D03*
X165350000Y-101430000D03*
X165350000Y-102700000D03*
D33*
X162315000Y-103950000D03*
X161045000Y-103950000D03*
X159775000Y-103950000D03*
X158505000Y-103950000D03*
X157235000Y-103950000D03*
X155965000Y-103950000D03*
X154695000Y-103950000D03*
X153425000Y-103950000D03*
X152155000Y-103950000D03*
X150885000Y-103950000D03*
D32*
X147850000Y-102700000D03*
X147850000Y-101430000D03*
X147850000Y-100160000D03*
X147850000Y-98890000D03*
X147850000Y-97620000D03*
X147850000Y-96350000D03*
X147850000Y-95080000D03*
X147850000Y-93810000D03*
X147850000Y-92540000D03*
X147850000Y-91270000D03*
X147850000Y-90000000D03*
X147850000Y-88730000D03*
X147850000Y-87460000D03*
X147850000Y-86190000D03*
%TD*%
D29*
%TO.C,*%
X151500000Y-124600000D03*
%TD*%
%TO.C,*%
X159120000Y-124600000D03*
%TD*%
%TO.C,*%
X156580000Y-124600000D03*
%TD*%
%TO.C,*%
X156530000Y-81350000D03*
%TD*%
%TO.C,*%
X159070000Y-81350000D03*
%TD*%
D30*
%TO.C,*%
X146420000Y-124600000D03*
%TD*%
M02*
