%TF.GenerationSoftware,KiCad,Pcbnew,8.0.1*%
%TF.CreationDate,2024-04-03T20:26:05-05:00*%
%TF.ProjectId,meshtastic-diy,6d657368-7461-4737-9469-632d6469792e,2.1*%
%TF.SameCoordinates,Original*%
%TF.FileFunction,Legend,Top*%
%TF.FilePolarity,Positive*%
%FSLAX46Y46*%
G04 Gerber Fmt 4.6, Leading zero omitted, Abs format (unit mm)*
G04 Created by KiCad (PCBNEW 8.0.1) date 2024-04-03 20:26:05*
%MOMM*%
%LPD*%
G01*
G04 APERTURE LIST*
%ADD10C,0.200000*%
%ADD11C,0.150000*%
%ADD12C,0.120000*%
%ADD13C,0.100000*%
G04 APERTURE END LIST*
D10*
X143295400Y-106683332D02*
X143247780Y-106588094D01*
X143247780Y-106588094D02*
X143247780Y-106397618D01*
X143247780Y-106397618D02*
X143295400Y-106302380D01*
X143295400Y-106302380D02*
X143343019Y-106254761D01*
X143343019Y-106254761D02*
X143438257Y-106207142D01*
X143438257Y-106207142D02*
X143723971Y-106207142D01*
X143723971Y-106207142D02*
X143819209Y-106254761D01*
X143819209Y-106254761D02*
X143866828Y-106302380D01*
X143866828Y-106302380D02*
X143914447Y-106397618D01*
X143914447Y-106397618D02*
X143914447Y-106588094D01*
X143914447Y-106588094D02*
X143866828Y-106683332D01*
X143247780Y-107254761D02*
X143295400Y-107159523D01*
X143295400Y-107159523D02*
X143343019Y-107111904D01*
X143343019Y-107111904D02*
X143438257Y-107064285D01*
X143438257Y-107064285D02*
X143723971Y-107064285D01*
X143723971Y-107064285D02*
X143819209Y-107111904D01*
X143819209Y-107111904D02*
X143866828Y-107159523D01*
X143866828Y-107159523D02*
X143914447Y-107254761D01*
X143914447Y-107254761D02*
X143914447Y-107397618D01*
X143914447Y-107397618D02*
X143866828Y-107492856D01*
X143866828Y-107492856D02*
X143819209Y-107540475D01*
X143819209Y-107540475D02*
X143723971Y-107588094D01*
X143723971Y-107588094D02*
X143438257Y-107588094D01*
X143438257Y-107588094D02*
X143343019Y-107540475D01*
X143343019Y-107540475D02*
X143295400Y-107492856D01*
X143295400Y-107492856D02*
X143247780Y-107397618D01*
X143247780Y-107397618D02*
X143247780Y-107254761D01*
X143247780Y-108016666D02*
X143914447Y-108016666D01*
X143723971Y-108016666D02*
X143819209Y-108064285D01*
X143819209Y-108064285D02*
X143866828Y-108111904D01*
X143866828Y-108111904D02*
X143914447Y-108207142D01*
X143914447Y-108207142D02*
X143914447Y-108302380D01*
X143295400Y-109016666D02*
X143247780Y-108921428D01*
X143247780Y-108921428D02*
X143247780Y-108730952D01*
X143247780Y-108730952D02*
X143295400Y-108635714D01*
X143295400Y-108635714D02*
X143390638Y-108588095D01*
X143390638Y-108588095D02*
X143771590Y-108588095D01*
X143771590Y-108588095D02*
X143866828Y-108635714D01*
X143866828Y-108635714D02*
X143914447Y-108730952D01*
X143914447Y-108730952D02*
X143914447Y-108921428D01*
X143914447Y-108921428D02*
X143866828Y-109016666D01*
X143866828Y-109016666D02*
X143771590Y-109064285D01*
X143771590Y-109064285D02*
X143676352Y-109064285D01*
X143676352Y-109064285D02*
X143581114Y-108588095D01*
X143914447Y-110254762D02*
X142914447Y-110254762D01*
X143866828Y-110254762D02*
X143914447Y-110350000D01*
X143914447Y-110350000D02*
X143914447Y-110540476D01*
X143914447Y-110540476D02*
X143866828Y-110635714D01*
X143866828Y-110635714D02*
X143819209Y-110683333D01*
X143819209Y-110683333D02*
X143723971Y-110730952D01*
X143723971Y-110730952D02*
X143438257Y-110730952D01*
X143438257Y-110730952D02*
X143343019Y-110683333D01*
X143343019Y-110683333D02*
X143295400Y-110635714D01*
X143295400Y-110635714D02*
X143247780Y-110540476D01*
X143247780Y-110540476D02*
X143247780Y-110350000D01*
X143247780Y-110350000D02*
X143295400Y-110254762D01*
X143295400Y-111588095D02*
X143247780Y-111492857D01*
X143247780Y-111492857D02*
X143247780Y-111302381D01*
X143247780Y-111302381D02*
X143295400Y-111207143D01*
X143295400Y-111207143D02*
X143343019Y-111159524D01*
X143343019Y-111159524D02*
X143438257Y-111111905D01*
X143438257Y-111111905D02*
X143723971Y-111111905D01*
X143723971Y-111111905D02*
X143819209Y-111159524D01*
X143819209Y-111159524D02*
X143866828Y-111207143D01*
X143866828Y-111207143D02*
X143914447Y-111302381D01*
X143914447Y-111302381D02*
X143914447Y-111492857D01*
X143914447Y-111492857D02*
X143866828Y-111588095D01*
X143247780Y-112016667D02*
X144247780Y-112016667D01*
X143866828Y-112016667D02*
X143914447Y-112111905D01*
X143914447Y-112111905D02*
X143914447Y-112302381D01*
X143914447Y-112302381D02*
X143866828Y-112397619D01*
X143866828Y-112397619D02*
X143819209Y-112445238D01*
X143819209Y-112445238D02*
X143723971Y-112492857D01*
X143723971Y-112492857D02*
X143438257Y-112492857D01*
X143438257Y-112492857D02*
X143343019Y-112445238D01*
X143343019Y-112445238D02*
X143295400Y-112397619D01*
X143295400Y-112397619D02*
X143247780Y-112302381D01*
X143247780Y-112302381D02*
X143247780Y-112111905D01*
X143247780Y-112111905D02*
X143295400Y-112016667D01*
X144247780Y-113540477D02*
X143247780Y-113873810D01*
X143247780Y-113873810D02*
X144247780Y-114207143D01*
X144152542Y-114492858D02*
X144200161Y-114540477D01*
X144200161Y-114540477D02*
X144247780Y-114635715D01*
X144247780Y-114635715D02*
X144247780Y-114873810D01*
X144247780Y-114873810D02*
X144200161Y-114969048D01*
X144200161Y-114969048D02*
X144152542Y-115016667D01*
X144152542Y-115016667D02*
X144057304Y-115064286D01*
X144057304Y-115064286D02*
X143962066Y-115064286D01*
X143962066Y-115064286D02*
X143819209Y-115016667D01*
X143819209Y-115016667D02*
X143247780Y-114445239D01*
X143247780Y-114445239D02*
X143247780Y-115064286D01*
X143343019Y-115492858D02*
X143295400Y-115540477D01*
X143295400Y-115540477D02*
X143247780Y-115492858D01*
X143247780Y-115492858D02*
X143295400Y-115445239D01*
X143295400Y-115445239D02*
X143343019Y-115492858D01*
X143343019Y-115492858D02*
X143247780Y-115492858D01*
X143247780Y-116492857D02*
X143247780Y-115921429D01*
X143247780Y-116207143D02*
X144247780Y-116207143D01*
X144247780Y-116207143D02*
X144104923Y-116111905D01*
X144104923Y-116111905D02*
X144009685Y-116016667D01*
X144009685Y-116016667D02*
X143962066Y-115921429D01*
D11*
X164304761Y-110350057D02*
X164209523Y-110302438D01*
X164209523Y-110302438D02*
X164114285Y-110207200D01*
X164114285Y-110207200D02*
X163971428Y-110064342D01*
X163971428Y-110064342D02*
X163876190Y-110016723D01*
X163876190Y-110016723D02*
X163780952Y-110016723D01*
X163828571Y-110254819D02*
X163733333Y-110207200D01*
X163733333Y-110207200D02*
X163638095Y-110111961D01*
X163638095Y-110111961D02*
X163590476Y-109921485D01*
X163590476Y-109921485D02*
X163590476Y-109588152D01*
X163590476Y-109588152D02*
X163638095Y-109397676D01*
X163638095Y-109397676D02*
X163733333Y-109302438D01*
X163733333Y-109302438D02*
X163828571Y-109254819D01*
X163828571Y-109254819D02*
X164019047Y-109254819D01*
X164019047Y-109254819D02*
X164114285Y-109302438D01*
X164114285Y-109302438D02*
X164209523Y-109397676D01*
X164209523Y-109397676D02*
X164257142Y-109588152D01*
X164257142Y-109588152D02*
X164257142Y-109921485D01*
X164257142Y-109921485D02*
X164209523Y-110111961D01*
X164209523Y-110111961D02*
X164114285Y-110207200D01*
X164114285Y-110207200D02*
X164019047Y-110254819D01*
X164019047Y-110254819D02*
X163828571Y-110254819D01*
X165209523Y-110254819D02*
X164638095Y-110254819D01*
X164923809Y-110254819D02*
X164923809Y-109254819D01*
X164923809Y-109254819D02*
X164828571Y-109397676D01*
X164828571Y-109397676D02*
X164733333Y-109492914D01*
X164733333Y-109492914D02*
X164638095Y-109540533D01*
X166504819Y-109591666D02*
X166028628Y-109924999D01*
X166504819Y-110163094D02*
X165504819Y-110163094D01*
X165504819Y-110163094D02*
X165504819Y-109782142D01*
X165504819Y-109782142D02*
X165552438Y-109686904D01*
X165552438Y-109686904D02*
X165600057Y-109639285D01*
X165600057Y-109639285D02*
X165695295Y-109591666D01*
X165695295Y-109591666D02*
X165838152Y-109591666D01*
X165838152Y-109591666D02*
X165933390Y-109639285D01*
X165933390Y-109639285D02*
X165981009Y-109686904D01*
X165981009Y-109686904D02*
X166028628Y-109782142D01*
X166028628Y-109782142D02*
X166028628Y-110163094D01*
X166504819Y-108639285D02*
X166504819Y-109210713D01*
X166504819Y-108924999D02*
X165504819Y-108924999D01*
X165504819Y-108924999D02*
X165647676Y-109020237D01*
X165647676Y-109020237D02*
X165742914Y-109115475D01*
X165742914Y-109115475D02*
X165790533Y-109210713D01*
X148338095Y-104554819D02*
X148338095Y-105364342D01*
X148338095Y-105364342D02*
X148385714Y-105459580D01*
X148385714Y-105459580D02*
X148433333Y-105507200D01*
X148433333Y-105507200D02*
X148528571Y-105554819D01*
X148528571Y-105554819D02*
X148719047Y-105554819D01*
X148719047Y-105554819D02*
X148814285Y-105507200D01*
X148814285Y-105507200D02*
X148861904Y-105459580D01*
X148861904Y-105459580D02*
X148909523Y-105364342D01*
X148909523Y-105364342D02*
X148909523Y-104554819D01*
X149338095Y-104650057D02*
X149385714Y-104602438D01*
X149385714Y-104602438D02*
X149480952Y-104554819D01*
X149480952Y-104554819D02*
X149719047Y-104554819D01*
X149719047Y-104554819D02*
X149814285Y-104602438D01*
X149814285Y-104602438D02*
X149861904Y-104650057D01*
X149861904Y-104650057D02*
X149909523Y-104745295D01*
X149909523Y-104745295D02*
X149909523Y-104840533D01*
X149909523Y-104840533D02*
X149861904Y-104983390D01*
X149861904Y-104983390D02*
X149290476Y-105554819D01*
X149290476Y-105554819D02*
X149909523Y-105554819D01*
X155359580Y-106466666D02*
X155407200Y-106514285D01*
X155407200Y-106514285D02*
X155454819Y-106657142D01*
X155454819Y-106657142D02*
X155454819Y-106752380D01*
X155454819Y-106752380D02*
X155407200Y-106895237D01*
X155407200Y-106895237D02*
X155311961Y-106990475D01*
X155311961Y-106990475D02*
X155216723Y-107038094D01*
X155216723Y-107038094D02*
X155026247Y-107085713D01*
X155026247Y-107085713D02*
X154883390Y-107085713D01*
X154883390Y-107085713D02*
X154692914Y-107038094D01*
X154692914Y-107038094D02*
X154597676Y-106990475D01*
X154597676Y-106990475D02*
X154502438Y-106895237D01*
X154502438Y-106895237D02*
X154454819Y-106752380D01*
X154454819Y-106752380D02*
X154454819Y-106657142D01*
X154454819Y-106657142D02*
X154502438Y-106514285D01*
X154502438Y-106514285D02*
X154550057Y-106466666D01*
X154788152Y-105609523D02*
X155454819Y-105609523D01*
X154407200Y-105847618D02*
X155121485Y-106085713D01*
X155121485Y-106085713D02*
X155121485Y-105466666D01*
X152933333Y-122254819D02*
X152457143Y-122254819D01*
X152457143Y-122254819D02*
X152457143Y-121254819D01*
X153219048Y-121350057D02*
X153266667Y-121302438D01*
X153266667Y-121302438D02*
X153361905Y-121254819D01*
X153361905Y-121254819D02*
X153600000Y-121254819D01*
X153600000Y-121254819D02*
X153695238Y-121302438D01*
X153695238Y-121302438D02*
X153742857Y-121350057D01*
X153742857Y-121350057D02*
X153790476Y-121445295D01*
X153790476Y-121445295D02*
X153790476Y-121540533D01*
X153790476Y-121540533D02*
X153742857Y-121683390D01*
X153742857Y-121683390D02*
X153171429Y-122254819D01*
X153171429Y-122254819D02*
X153790476Y-122254819D01*
X145559580Y-94066666D02*
X145607200Y-94114285D01*
X145607200Y-94114285D02*
X145654819Y-94257142D01*
X145654819Y-94257142D02*
X145654819Y-94352380D01*
X145654819Y-94352380D02*
X145607200Y-94495237D01*
X145607200Y-94495237D02*
X145511961Y-94590475D01*
X145511961Y-94590475D02*
X145416723Y-94638094D01*
X145416723Y-94638094D02*
X145226247Y-94685713D01*
X145226247Y-94685713D02*
X145083390Y-94685713D01*
X145083390Y-94685713D02*
X144892914Y-94638094D01*
X144892914Y-94638094D02*
X144797676Y-94590475D01*
X144797676Y-94590475D02*
X144702438Y-94495237D01*
X144702438Y-94495237D02*
X144654819Y-94352380D01*
X144654819Y-94352380D02*
X144654819Y-94257142D01*
X144654819Y-94257142D02*
X144702438Y-94114285D01*
X144702438Y-94114285D02*
X144750057Y-94066666D01*
X144654819Y-93161904D02*
X144654819Y-93638094D01*
X144654819Y-93638094D02*
X145131009Y-93685713D01*
X145131009Y-93685713D02*
X145083390Y-93638094D01*
X145083390Y-93638094D02*
X145035771Y-93542856D01*
X145035771Y-93542856D02*
X145035771Y-93304761D01*
X145035771Y-93304761D02*
X145083390Y-93209523D01*
X145083390Y-93209523D02*
X145131009Y-93161904D01*
X145131009Y-93161904D02*
X145226247Y-93114285D01*
X145226247Y-93114285D02*
X145464342Y-93114285D01*
X145464342Y-93114285D02*
X145559580Y-93161904D01*
X145559580Y-93161904D02*
X145607200Y-93209523D01*
X145607200Y-93209523D02*
X145654819Y-93304761D01*
X145654819Y-93304761D02*
X145654819Y-93542856D01*
X145654819Y-93542856D02*
X145607200Y-93638094D01*
X145607200Y-93638094D02*
X145559580Y-93685713D01*
X162754761Y-113800057D02*
X162659523Y-113752438D01*
X162659523Y-113752438D02*
X162564285Y-113657200D01*
X162564285Y-113657200D02*
X162421428Y-113514342D01*
X162421428Y-113514342D02*
X162326190Y-113466723D01*
X162326190Y-113466723D02*
X162230952Y-113466723D01*
X162278571Y-113704819D02*
X162183333Y-113657200D01*
X162183333Y-113657200D02*
X162088095Y-113561961D01*
X162088095Y-113561961D02*
X162040476Y-113371485D01*
X162040476Y-113371485D02*
X162040476Y-113038152D01*
X162040476Y-113038152D02*
X162088095Y-112847676D01*
X162088095Y-112847676D02*
X162183333Y-112752438D01*
X162183333Y-112752438D02*
X162278571Y-112704819D01*
X162278571Y-112704819D02*
X162469047Y-112704819D01*
X162469047Y-112704819D02*
X162564285Y-112752438D01*
X162564285Y-112752438D02*
X162659523Y-112847676D01*
X162659523Y-112847676D02*
X162707142Y-113038152D01*
X162707142Y-113038152D02*
X162707142Y-113371485D01*
X162707142Y-113371485D02*
X162659523Y-113561961D01*
X162659523Y-113561961D02*
X162564285Y-113657200D01*
X162564285Y-113657200D02*
X162469047Y-113704819D01*
X162469047Y-113704819D02*
X162278571Y-113704819D01*
X163088095Y-112800057D02*
X163135714Y-112752438D01*
X163135714Y-112752438D02*
X163230952Y-112704819D01*
X163230952Y-112704819D02*
X163469047Y-112704819D01*
X163469047Y-112704819D02*
X163564285Y-112752438D01*
X163564285Y-112752438D02*
X163611904Y-112800057D01*
X163611904Y-112800057D02*
X163659523Y-112895295D01*
X163659523Y-112895295D02*
X163659523Y-112990533D01*
X163659523Y-112990533D02*
X163611904Y-113133390D01*
X163611904Y-113133390D02*
X163040476Y-113704819D01*
X163040476Y-113704819D02*
X163659523Y-113704819D01*
X164554819Y-111816666D02*
X164078628Y-112149999D01*
X164554819Y-112388094D02*
X163554819Y-112388094D01*
X163554819Y-112388094D02*
X163554819Y-112007142D01*
X163554819Y-112007142D02*
X163602438Y-111911904D01*
X163602438Y-111911904D02*
X163650057Y-111864285D01*
X163650057Y-111864285D02*
X163745295Y-111816666D01*
X163745295Y-111816666D02*
X163888152Y-111816666D01*
X163888152Y-111816666D02*
X163983390Y-111864285D01*
X163983390Y-111864285D02*
X164031009Y-111911904D01*
X164031009Y-111911904D02*
X164078628Y-112007142D01*
X164078628Y-112007142D02*
X164078628Y-112388094D01*
X163554819Y-111483332D02*
X163554819Y-110864285D01*
X163554819Y-110864285D02*
X163935771Y-111197618D01*
X163935771Y-111197618D02*
X163935771Y-111054761D01*
X163935771Y-111054761D02*
X163983390Y-110959523D01*
X163983390Y-110959523D02*
X164031009Y-110911904D01*
X164031009Y-110911904D02*
X164126247Y-110864285D01*
X164126247Y-110864285D02*
X164364342Y-110864285D01*
X164364342Y-110864285D02*
X164459580Y-110911904D01*
X164459580Y-110911904D02*
X164507200Y-110959523D01*
X164507200Y-110959523D02*
X164554819Y-111054761D01*
X164554819Y-111054761D02*
X164554819Y-111340475D01*
X164554819Y-111340475D02*
X164507200Y-111435713D01*
X164507200Y-111435713D02*
X164459580Y-111483332D01*
X157154819Y-106366666D02*
X156678628Y-106699999D01*
X157154819Y-106938094D02*
X156154819Y-106938094D01*
X156154819Y-106938094D02*
X156154819Y-106557142D01*
X156154819Y-106557142D02*
X156202438Y-106461904D01*
X156202438Y-106461904D02*
X156250057Y-106414285D01*
X156250057Y-106414285D02*
X156345295Y-106366666D01*
X156345295Y-106366666D02*
X156488152Y-106366666D01*
X156488152Y-106366666D02*
X156583390Y-106414285D01*
X156583390Y-106414285D02*
X156631009Y-106461904D01*
X156631009Y-106461904D02*
X156678628Y-106557142D01*
X156678628Y-106557142D02*
X156678628Y-106938094D01*
X156154819Y-105509523D02*
X156154819Y-105699999D01*
X156154819Y-105699999D02*
X156202438Y-105795237D01*
X156202438Y-105795237D02*
X156250057Y-105842856D01*
X156250057Y-105842856D02*
X156392914Y-105938094D01*
X156392914Y-105938094D02*
X156583390Y-105985713D01*
X156583390Y-105985713D02*
X156964342Y-105985713D01*
X156964342Y-105985713D02*
X157059580Y-105938094D01*
X157059580Y-105938094D02*
X157107200Y-105890475D01*
X157107200Y-105890475D02*
X157154819Y-105795237D01*
X157154819Y-105795237D02*
X157154819Y-105604761D01*
X157154819Y-105604761D02*
X157107200Y-105509523D01*
X157107200Y-105509523D02*
X157059580Y-105461904D01*
X157059580Y-105461904D02*
X156964342Y-105414285D01*
X156964342Y-105414285D02*
X156726247Y-105414285D01*
X156726247Y-105414285D02*
X156631009Y-105461904D01*
X156631009Y-105461904D02*
X156583390Y-105509523D01*
X156583390Y-105509523D02*
X156535771Y-105604761D01*
X156535771Y-105604761D02*
X156535771Y-105795237D01*
X156535771Y-105795237D02*
X156583390Y-105890475D01*
X156583390Y-105890475D02*
X156631009Y-105938094D01*
X156631009Y-105938094D02*
X156726247Y-105985713D01*
X168054819Y-109741666D02*
X167578628Y-110074999D01*
X168054819Y-110313094D02*
X167054819Y-110313094D01*
X167054819Y-110313094D02*
X167054819Y-109932142D01*
X167054819Y-109932142D02*
X167102438Y-109836904D01*
X167102438Y-109836904D02*
X167150057Y-109789285D01*
X167150057Y-109789285D02*
X167245295Y-109741666D01*
X167245295Y-109741666D02*
X167388152Y-109741666D01*
X167388152Y-109741666D02*
X167483390Y-109789285D01*
X167483390Y-109789285D02*
X167531009Y-109836904D01*
X167531009Y-109836904D02*
X167578628Y-109932142D01*
X167578628Y-109932142D02*
X167578628Y-110313094D01*
X167150057Y-109360713D02*
X167102438Y-109313094D01*
X167102438Y-109313094D02*
X167054819Y-109217856D01*
X167054819Y-109217856D02*
X167054819Y-108979761D01*
X167054819Y-108979761D02*
X167102438Y-108884523D01*
X167102438Y-108884523D02*
X167150057Y-108836904D01*
X167150057Y-108836904D02*
X167245295Y-108789285D01*
X167245295Y-108789285D02*
X167340533Y-108789285D01*
X167340533Y-108789285D02*
X167483390Y-108836904D01*
X167483390Y-108836904D02*
X168054819Y-109408332D01*
X168054819Y-109408332D02*
X168054819Y-108789285D01*
X155261905Y-116054819D02*
X155261905Y-115054819D01*
X155261905Y-115054819D02*
X155500000Y-115054819D01*
X155500000Y-115054819D02*
X155642857Y-115102438D01*
X155642857Y-115102438D02*
X155738095Y-115197676D01*
X155738095Y-115197676D02*
X155785714Y-115292914D01*
X155785714Y-115292914D02*
X155833333Y-115483390D01*
X155833333Y-115483390D02*
X155833333Y-115626247D01*
X155833333Y-115626247D02*
X155785714Y-115816723D01*
X155785714Y-115816723D02*
X155738095Y-115911961D01*
X155738095Y-115911961D02*
X155642857Y-116007200D01*
X155642857Y-116007200D02*
X155500000Y-116054819D01*
X155500000Y-116054819D02*
X155261905Y-116054819D01*
X156785714Y-116054819D02*
X156214286Y-116054819D01*
X156500000Y-116054819D02*
X156500000Y-115054819D01*
X156500000Y-115054819D02*
X156404762Y-115197676D01*
X156404762Y-115197676D02*
X156309524Y-115292914D01*
X156309524Y-115292914D02*
X156214286Y-115340533D01*
X153107142Y-113254819D02*
X152773809Y-112778628D01*
X152535714Y-113254819D02*
X152535714Y-112254819D01*
X152535714Y-112254819D02*
X152916666Y-112254819D01*
X152916666Y-112254819D02*
X153011904Y-112302438D01*
X153011904Y-112302438D02*
X153059523Y-112350057D01*
X153059523Y-112350057D02*
X153107142Y-112445295D01*
X153107142Y-112445295D02*
X153107142Y-112588152D01*
X153107142Y-112588152D02*
X153059523Y-112683390D01*
X153059523Y-112683390D02*
X153011904Y-112731009D01*
X153011904Y-112731009D02*
X152916666Y-112778628D01*
X152916666Y-112778628D02*
X152535714Y-112778628D01*
X154059523Y-113254819D02*
X153488095Y-113254819D01*
X153773809Y-113254819D02*
X153773809Y-112254819D01*
X153773809Y-112254819D02*
X153678571Y-112397676D01*
X153678571Y-112397676D02*
X153583333Y-112492914D01*
X153583333Y-112492914D02*
X153488095Y-112540533D01*
X154916666Y-112588152D02*
X154916666Y-113254819D01*
X154678571Y-112207200D02*
X154440476Y-112921485D01*
X154440476Y-112921485D02*
X155059523Y-112921485D01*
X155908333Y-117304819D02*
X155575000Y-116828628D01*
X155336905Y-117304819D02*
X155336905Y-116304819D01*
X155336905Y-116304819D02*
X155717857Y-116304819D01*
X155717857Y-116304819D02*
X155813095Y-116352438D01*
X155813095Y-116352438D02*
X155860714Y-116400057D01*
X155860714Y-116400057D02*
X155908333Y-116495295D01*
X155908333Y-116495295D02*
X155908333Y-116638152D01*
X155908333Y-116638152D02*
X155860714Y-116733390D01*
X155860714Y-116733390D02*
X155813095Y-116781009D01*
X155813095Y-116781009D02*
X155717857Y-116828628D01*
X155717857Y-116828628D02*
X155336905Y-116828628D01*
X156479762Y-116733390D02*
X156384524Y-116685771D01*
X156384524Y-116685771D02*
X156336905Y-116638152D01*
X156336905Y-116638152D02*
X156289286Y-116542914D01*
X156289286Y-116542914D02*
X156289286Y-116495295D01*
X156289286Y-116495295D02*
X156336905Y-116400057D01*
X156336905Y-116400057D02*
X156384524Y-116352438D01*
X156384524Y-116352438D02*
X156479762Y-116304819D01*
X156479762Y-116304819D02*
X156670238Y-116304819D01*
X156670238Y-116304819D02*
X156765476Y-116352438D01*
X156765476Y-116352438D02*
X156813095Y-116400057D01*
X156813095Y-116400057D02*
X156860714Y-116495295D01*
X156860714Y-116495295D02*
X156860714Y-116542914D01*
X156860714Y-116542914D02*
X156813095Y-116638152D01*
X156813095Y-116638152D02*
X156765476Y-116685771D01*
X156765476Y-116685771D02*
X156670238Y-116733390D01*
X156670238Y-116733390D02*
X156479762Y-116733390D01*
X156479762Y-116733390D02*
X156384524Y-116781009D01*
X156384524Y-116781009D02*
X156336905Y-116828628D01*
X156336905Y-116828628D02*
X156289286Y-116923866D01*
X156289286Y-116923866D02*
X156289286Y-117114342D01*
X156289286Y-117114342D02*
X156336905Y-117209580D01*
X156336905Y-117209580D02*
X156384524Y-117257200D01*
X156384524Y-117257200D02*
X156479762Y-117304819D01*
X156479762Y-117304819D02*
X156670238Y-117304819D01*
X156670238Y-117304819D02*
X156765476Y-117257200D01*
X156765476Y-117257200D02*
X156813095Y-117209580D01*
X156813095Y-117209580D02*
X156860714Y-117114342D01*
X156860714Y-117114342D02*
X156860714Y-116923866D01*
X156860714Y-116923866D02*
X156813095Y-116828628D01*
X156813095Y-116828628D02*
X156765476Y-116781009D01*
X156765476Y-116781009D02*
X156670238Y-116733390D01*
X154934580Y-118917857D02*
X154982200Y-118965476D01*
X154982200Y-118965476D02*
X155029819Y-119108333D01*
X155029819Y-119108333D02*
X155029819Y-119203571D01*
X155029819Y-119203571D02*
X154982200Y-119346428D01*
X154982200Y-119346428D02*
X154886961Y-119441666D01*
X154886961Y-119441666D02*
X154791723Y-119489285D01*
X154791723Y-119489285D02*
X154601247Y-119536904D01*
X154601247Y-119536904D02*
X154458390Y-119536904D01*
X154458390Y-119536904D02*
X154267914Y-119489285D01*
X154267914Y-119489285D02*
X154172676Y-119441666D01*
X154172676Y-119441666D02*
X154077438Y-119346428D01*
X154077438Y-119346428D02*
X154029819Y-119203571D01*
X154029819Y-119203571D02*
X154029819Y-119108333D01*
X154029819Y-119108333D02*
X154077438Y-118965476D01*
X154077438Y-118965476D02*
X154125057Y-118917857D01*
X155029819Y-117965476D02*
X155029819Y-118536904D01*
X155029819Y-118251190D02*
X154029819Y-118251190D01*
X154029819Y-118251190D02*
X154172676Y-118346428D01*
X154172676Y-118346428D02*
X154267914Y-118441666D01*
X154267914Y-118441666D02*
X154315533Y-118536904D01*
X154029819Y-117346428D02*
X154029819Y-117251190D01*
X154029819Y-117251190D02*
X154077438Y-117155952D01*
X154077438Y-117155952D02*
X154125057Y-117108333D01*
X154125057Y-117108333D02*
X154220295Y-117060714D01*
X154220295Y-117060714D02*
X154410771Y-117013095D01*
X154410771Y-117013095D02*
X154648866Y-117013095D01*
X154648866Y-117013095D02*
X154839342Y-117060714D01*
X154839342Y-117060714D02*
X154934580Y-117108333D01*
X154934580Y-117108333D02*
X154982200Y-117155952D01*
X154982200Y-117155952D02*
X155029819Y-117251190D01*
X155029819Y-117251190D02*
X155029819Y-117346428D01*
X155029819Y-117346428D02*
X154982200Y-117441666D01*
X154982200Y-117441666D02*
X154934580Y-117489285D01*
X154934580Y-117489285D02*
X154839342Y-117536904D01*
X154839342Y-117536904D02*
X154648866Y-117584523D01*
X154648866Y-117584523D02*
X154410771Y-117584523D01*
X154410771Y-117584523D02*
X154220295Y-117536904D01*
X154220295Y-117536904D02*
X154125057Y-117489285D01*
X154125057Y-117489285D02*
X154077438Y-117441666D01*
X154077438Y-117441666D02*
X154029819Y-117346428D01*
X144359580Y-96816666D02*
X144407200Y-96864285D01*
X144407200Y-96864285D02*
X144454819Y-97007142D01*
X144454819Y-97007142D02*
X144454819Y-97102380D01*
X144454819Y-97102380D02*
X144407200Y-97245237D01*
X144407200Y-97245237D02*
X144311961Y-97340475D01*
X144311961Y-97340475D02*
X144216723Y-97388094D01*
X144216723Y-97388094D02*
X144026247Y-97435713D01*
X144026247Y-97435713D02*
X143883390Y-97435713D01*
X143883390Y-97435713D02*
X143692914Y-97388094D01*
X143692914Y-97388094D02*
X143597676Y-97340475D01*
X143597676Y-97340475D02*
X143502438Y-97245237D01*
X143502438Y-97245237D02*
X143454819Y-97102380D01*
X143454819Y-97102380D02*
X143454819Y-97007142D01*
X143454819Y-97007142D02*
X143502438Y-96864285D01*
X143502438Y-96864285D02*
X143550057Y-96816666D01*
X143454819Y-95959523D02*
X143454819Y-96149999D01*
X143454819Y-96149999D02*
X143502438Y-96245237D01*
X143502438Y-96245237D02*
X143550057Y-96292856D01*
X143550057Y-96292856D02*
X143692914Y-96388094D01*
X143692914Y-96388094D02*
X143883390Y-96435713D01*
X143883390Y-96435713D02*
X144264342Y-96435713D01*
X144264342Y-96435713D02*
X144359580Y-96388094D01*
X144359580Y-96388094D02*
X144407200Y-96340475D01*
X144407200Y-96340475D02*
X144454819Y-96245237D01*
X144454819Y-96245237D02*
X144454819Y-96054761D01*
X144454819Y-96054761D02*
X144407200Y-95959523D01*
X144407200Y-95959523D02*
X144359580Y-95911904D01*
X144359580Y-95911904D02*
X144264342Y-95864285D01*
X144264342Y-95864285D02*
X144026247Y-95864285D01*
X144026247Y-95864285D02*
X143931009Y-95911904D01*
X143931009Y-95911904D02*
X143883390Y-95959523D01*
X143883390Y-95959523D02*
X143835771Y-96054761D01*
X143835771Y-96054761D02*
X143835771Y-96245237D01*
X143835771Y-96245237D02*
X143883390Y-96340475D01*
X143883390Y-96340475D02*
X143931009Y-96388094D01*
X143931009Y-96388094D02*
X144026247Y-96435713D01*
X144404819Y-83716666D02*
X143928628Y-84049999D01*
X144404819Y-84288094D02*
X143404819Y-84288094D01*
X143404819Y-84288094D02*
X143404819Y-83907142D01*
X143404819Y-83907142D02*
X143452438Y-83811904D01*
X143452438Y-83811904D02*
X143500057Y-83764285D01*
X143500057Y-83764285D02*
X143595295Y-83716666D01*
X143595295Y-83716666D02*
X143738152Y-83716666D01*
X143738152Y-83716666D02*
X143833390Y-83764285D01*
X143833390Y-83764285D02*
X143881009Y-83811904D01*
X143881009Y-83811904D02*
X143928628Y-83907142D01*
X143928628Y-83907142D02*
X143928628Y-84288094D01*
X144404819Y-83240475D02*
X144404819Y-83049999D01*
X144404819Y-83049999D02*
X144357200Y-82954761D01*
X144357200Y-82954761D02*
X144309580Y-82907142D01*
X144309580Y-82907142D02*
X144166723Y-82811904D01*
X144166723Y-82811904D02*
X143976247Y-82764285D01*
X143976247Y-82764285D02*
X143595295Y-82764285D01*
X143595295Y-82764285D02*
X143500057Y-82811904D01*
X143500057Y-82811904D02*
X143452438Y-82859523D01*
X143452438Y-82859523D02*
X143404819Y-82954761D01*
X143404819Y-82954761D02*
X143404819Y-83145237D01*
X143404819Y-83145237D02*
X143452438Y-83240475D01*
X143452438Y-83240475D02*
X143500057Y-83288094D01*
X143500057Y-83288094D02*
X143595295Y-83335713D01*
X143595295Y-83335713D02*
X143833390Y-83335713D01*
X143833390Y-83335713D02*
X143928628Y-83288094D01*
X143928628Y-83288094D02*
X143976247Y-83240475D01*
X143976247Y-83240475D02*
X144023866Y-83145237D01*
X144023866Y-83145237D02*
X144023866Y-82954761D01*
X144023866Y-82954761D02*
X143976247Y-82859523D01*
X143976247Y-82859523D02*
X143928628Y-82811904D01*
X143928628Y-82811904D02*
X143833390Y-82764285D01*
X144657142Y-119709580D02*
X144609523Y-119757200D01*
X144609523Y-119757200D02*
X144466666Y-119804819D01*
X144466666Y-119804819D02*
X144371428Y-119804819D01*
X144371428Y-119804819D02*
X144228571Y-119757200D01*
X144228571Y-119757200D02*
X144133333Y-119661961D01*
X144133333Y-119661961D02*
X144085714Y-119566723D01*
X144085714Y-119566723D02*
X144038095Y-119376247D01*
X144038095Y-119376247D02*
X144038095Y-119233390D01*
X144038095Y-119233390D02*
X144085714Y-119042914D01*
X144085714Y-119042914D02*
X144133333Y-118947676D01*
X144133333Y-118947676D02*
X144228571Y-118852438D01*
X144228571Y-118852438D02*
X144371428Y-118804819D01*
X144371428Y-118804819D02*
X144466666Y-118804819D01*
X144466666Y-118804819D02*
X144609523Y-118852438D01*
X144609523Y-118852438D02*
X144657142Y-118900057D01*
X145609523Y-119804819D02*
X145038095Y-119804819D01*
X145323809Y-119804819D02*
X145323809Y-118804819D01*
X145323809Y-118804819D02*
X145228571Y-118947676D01*
X145228571Y-118947676D02*
X145133333Y-119042914D01*
X145133333Y-119042914D02*
X145038095Y-119090533D01*
X145990476Y-118900057D02*
X146038095Y-118852438D01*
X146038095Y-118852438D02*
X146133333Y-118804819D01*
X146133333Y-118804819D02*
X146371428Y-118804819D01*
X146371428Y-118804819D02*
X146466666Y-118852438D01*
X146466666Y-118852438D02*
X146514285Y-118900057D01*
X146514285Y-118900057D02*
X146561904Y-118995295D01*
X146561904Y-118995295D02*
X146561904Y-119090533D01*
X146561904Y-119090533D02*
X146514285Y-119233390D01*
X146514285Y-119233390D02*
X145942857Y-119804819D01*
X145942857Y-119804819D02*
X146561904Y-119804819D01*
X158359580Y-106516666D02*
X158407200Y-106564285D01*
X158407200Y-106564285D02*
X158454819Y-106707142D01*
X158454819Y-106707142D02*
X158454819Y-106802380D01*
X158454819Y-106802380D02*
X158407200Y-106945237D01*
X158407200Y-106945237D02*
X158311961Y-107040475D01*
X158311961Y-107040475D02*
X158216723Y-107088094D01*
X158216723Y-107088094D02*
X158026247Y-107135713D01*
X158026247Y-107135713D02*
X157883390Y-107135713D01*
X157883390Y-107135713D02*
X157692914Y-107088094D01*
X157692914Y-107088094D02*
X157597676Y-107040475D01*
X157597676Y-107040475D02*
X157502438Y-106945237D01*
X157502438Y-106945237D02*
X157454819Y-106802380D01*
X157454819Y-106802380D02*
X157454819Y-106707142D01*
X157454819Y-106707142D02*
X157502438Y-106564285D01*
X157502438Y-106564285D02*
X157550057Y-106516666D01*
X158454819Y-105564285D02*
X158454819Y-106135713D01*
X158454819Y-105849999D02*
X157454819Y-105849999D01*
X157454819Y-105849999D02*
X157597676Y-105945237D01*
X157597676Y-105945237D02*
X157692914Y-106040475D01*
X157692914Y-106040475D02*
X157740533Y-106135713D01*
X155933333Y-118554819D02*
X155600000Y-118078628D01*
X155361905Y-118554819D02*
X155361905Y-117554819D01*
X155361905Y-117554819D02*
X155742857Y-117554819D01*
X155742857Y-117554819D02*
X155838095Y-117602438D01*
X155838095Y-117602438D02*
X155885714Y-117650057D01*
X155885714Y-117650057D02*
X155933333Y-117745295D01*
X155933333Y-117745295D02*
X155933333Y-117888152D01*
X155933333Y-117888152D02*
X155885714Y-117983390D01*
X155885714Y-117983390D02*
X155838095Y-118031009D01*
X155838095Y-118031009D02*
X155742857Y-118078628D01*
X155742857Y-118078628D02*
X155361905Y-118078628D01*
X156790476Y-117888152D02*
X156790476Y-118554819D01*
X156552381Y-117507200D02*
X156314286Y-118221485D01*
X156314286Y-118221485D02*
X156933333Y-118221485D01*
X144059580Y-94992857D02*
X144107200Y-95040476D01*
X144107200Y-95040476D02*
X144154819Y-95183333D01*
X144154819Y-95183333D02*
X144154819Y-95278571D01*
X144154819Y-95278571D02*
X144107200Y-95421428D01*
X144107200Y-95421428D02*
X144011961Y-95516666D01*
X144011961Y-95516666D02*
X143916723Y-95564285D01*
X143916723Y-95564285D02*
X143726247Y-95611904D01*
X143726247Y-95611904D02*
X143583390Y-95611904D01*
X143583390Y-95611904D02*
X143392914Y-95564285D01*
X143392914Y-95564285D02*
X143297676Y-95516666D01*
X143297676Y-95516666D02*
X143202438Y-95421428D01*
X143202438Y-95421428D02*
X143154819Y-95278571D01*
X143154819Y-95278571D02*
X143154819Y-95183333D01*
X143154819Y-95183333D02*
X143202438Y-95040476D01*
X143202438Y-95040476D02*
X143250057Y-94992857D01*
X144154819Y-94040476D02*
X144154819Y-94611904D01*
X144154819Y-94326190D02*
X143154819Y-94326190D01*
X143154819Y-94326190D02*
X143297676Y-94421428D01*
X143297676Y-94421428D02*
X143392914Y-94516666D01*
X143392914Y-94516666D02*
X143440533Y-94611904D01*
X143154819Y-93707142D02*
X143154819Y-93088095D01*
X143154819Y-93088095D02*
X143535771Y-93421428D01*
X143535771Y-93421428D02*
X143535771Y-93278571D01*
X143535771Y-93278571D02*
X143583390Y-93183333D01*
X143583390Y-93183333D02*
X143631009Y-93135714D01*
X143631009Y-93135714D02*
X143726247Y-93088095D01*
X143726247Y-93088095D02*
X143964342Y-93088095D01*
X143964342Y-93088095D02*
X144059580Y-93135714D01*
X144059580Y-93135714D02*
X144107200Y-93183333D01*
X144107200Y-93183333D02*
X144154819Y-93278571D01*
X144154819Y-93278571D02*
X144154819Y-93564285D01*
X144154819Y-93564285D02*
X144107200Y-93659523D01*
X144107200Y-93659523D02*
X144059580Y-93707142D01*
X145859580Y-83716666D02*
X145907200Y-83764285D01*
X145907200Y-83764285D02*
X145954819Y-83907142D01*
X145954819Y-83907142D02*
X145954819Y-84002380D01*
X145954819Y-84002380D02*
X145907200Y-84145237D01*
X145907200Y-84145237D02*
X145811961Y-84240475D01*
X145811961Y-84240475D02*
X145716723Y-84288094D01*
X145716723Y-84288094D02*
X145526247Y-84335713D01*
X145526247Y-84335713D02*
X145383390Y-84335713D01*
X145383390Y-84335713D02*
X145192914Y-84288094D01*
X145192914Y-84288094D02*
X145097676Y-84240475D01*
X145097676Y-84240475D02*
X145002438Y-84145237D01*
X145002438Y-84145237D02*
X144954819Y-84002380D01*
X144954819Y-84002380D02*
X144954819Y-83907142D01*
X144954819Y-83907142D02*
X145002438Y-83764285D01*
X145002438Y-83764285D02*
X145050057Y-83716666D01*
X145050057Y-83335713D02*
X145002438Y-83288094D01*
X145002438Y-83288094D02*
X144954819Y-83192856D01*
X144954819Y-83192856D02*
X144954819Y-82954761D01*
X144954819Y-82954761D02*
X145002438Y-82859523D01*
X145002438Y-82859523D02*
X145050057Y-82811904D01*
X145050057Y-82811904D02*
X145145295Y-82764285D01*
X145145295Y-82764285D02*
X145240533Y-82764285D01*
X145240533Y-82764285D02*
X145383390Y-82811904D01*
X145383390Y-82811904D02*
X145954819Y-83383332D01*
X145954819Y-83383332D02*
X145954819Y-82764285D01*
X144833333Y-88159580D02*
X144785714Y-88207200D01*
X144785714Y-88207200D02*
X144642857Y-88254819D01*
X144642857Y-88254819D02*
X144547619Y-88254819D01*
X144547619Y-88254819D02*
X144404762Y-88207200D01*
X144404762Y-88207200D02*
X144309524Y-88111961D01*
X144309524Y-88111961D02*
X144261905Y-88016723D01*
X144261905Y-88016723D02*
X144214286Y-87826247D01*
X144214286Y-87826247D02*
X144214286Y-87683390D01*
X144214286Y-87683390D02*
X144261905Y-87492914D01*
X144261905Y-87492914D02*
X144309524Y-87397676D01*
X144309524Y-87397676D02*
X144404762Y-87302438D01*
X144404762Y-87302438D02*
X144547619Y-87254819D01*
X144547619Y-87254819D02*
X144642857Y-87254819D01*
X144642857Y-87254819D02*
X144785714Y-87302438D01*
X144785714Y-87302438D02*
X144833333Y-87350057D01*
X145166667Y-87254819D02*
X145785714Y-87254819D01*
X145785714Y-87254819D02*
X145452381Y-87635771D01*
X145452381Y-87635771D02*
X145595238Y-87635771D01*
X145595238Y-87635771D02*
X145690476Y-87683390D01*
X145690476Y-87683390D02*
X145738095Y-87731009D01*
X145738095Y-87731009D02*
X145785714Y-87826247D01*
X145785714Y-87826247D02*
X145785714Y-88064342D01*
X145785714Y-88064342D02*
X145738095Y-88159580D01*
X145738095Y-88159580D02*
X145690476Y-88207200D01*
X145690476Y-88207200D02*
X145595238Y-88254819D01*
X145595238Y-88254819D02*
X145309524Y-88254819D01*
X145309524Y-88254819D02*
X145214286Y-88207200D01*
X145214286Y-88207200D02*
X145166667Y-88159580D01*
X167866666Y-111054819D02*
X167866666Y-111769104D01*
X167866666Y-111769104D02*
X167819047Y-111911961D01*
X167819047Y-111911961D02*
X167723809Y-112007200D01*
X167723809Y-112007200D02*
X167580952Y-112054819D01*
X167580952Y-112054819D02*
X167485714Y-112054819D01*
X168771428Y-111388152D02*
X168771428Y-112054819D01*
X168533333Y-111007200D02*
X168295238Y-111721485D01*
X168295238Y-111721485D02*
X168914285Y-111721485D01*
X165254761Y-123050057D02*
X165159523Y-123002438D01*
X165159523Y-123002438D02*
X165064285Y-122907200D01*
X165064285Y-122907200D02*
X164921428Y-122764342D01*
X164921428Y-122764342D02*
X164826190Y-122716723D01*
X164826190Y-122716723D02*
X164730952Y-122716723D01*
X164778571Y-122954819D02*
X164683333Y-122907200D01*
X164683333Y-122907200D02*
X164588095Y-122811961D01*
X164588095Y-122811961D02*
X164540476Y-122621485D01*
X164540476Y-122621485D02*
X164540476Y-122288152D01*
X164540476Y-122288152D02*
X164588095Y-122097676D01*
X164588095Y-122097676D02*
X164683333Y-122002438D01*
X164683333Y-122002438D02*
X164778571Y-121954819D01*
X164778571Y-121954819D02*
X164969047Y-121954819D01*
X164969047Y-121954819D02*
X165064285Y-122002438D01*
X165064285Y-122002438D02*
X165159523Y-122097676D01*
X165159523Y-122097676D02*
X165207142Y-122288152D01*
X165207142Y-122288152D02*
X165207142Y-122621485D01*
X165207142Y-122621485D02*
X165159523Y-122811961D01*
X165159523Y-122811961D02*
X165064285Y-122907200D01*
X165064285Y-122907200D02*
X164969047Y-122954819D01*
X164969047Y-122954819D02*
X164778571Y-122954819D01*
X166064285Y-122288152D02*
X166064285Y-122954819D01*
X165826190Y-121907200D02*
X165588095Y-122621485D01*
X165588095Y-122621485D02*
X166207142Y-122621485D01*
X164654819Y-118242857D02*
X164178628Y-118576190D01*
X164654819Y-118814285D02*
X163654819Y-118814285D01*
X163654819Y-118814285D02*
X163654819Y-118433333D01*
X163654819Y-118433333D02*
X163702438Y-118338095D01*
X163702438Y-118338095D02*
X163750057Y-118290476D01*
X163750057Y-118290476D02*
X163845295Y-118242857D01*
X163845295Y-118242857D02*
X163988152Y-118242857D01*
X163988152Y-118242857D02*
X164083390Y-118290476D01*
X164083390Y-118290476D02*
X164131009Y-118338095D01*
X164131009Y-118338095D02*
X164178628Y-118433333D01*
X164178628Y-118433333D02*
X164178628Y-118814285D01*
X164654819Y-117290476D02*
X164654819Y-117861904D01*
X164654819Y-117576190D02*
X163654819Y-117576190D01*
X163654819Y-117576190D02*
X163797676Y-117671428D01*
X163797676Y-117671428D02*
X163892914Y-117766666D01*
X163892914Y-117766666D02*
X163940533Y-117861904D01*
X163654819Y-116433333D02*
X163654819Y-116623809D01*
X163654819Y-116623809D02*
X163702438Y-116719047D01*
X163702438Y-116719047D02*
X163750057Y-116766666D01*
X163750057Y-116766666D02*
X163892914Y-116861904D01*
X163892914Y-116861904D02*
X164083390Y-116909523D01*
X164083390Y-116909523D02*
X164464342Y-116909523D01*
X164464342Y-116909523D02*
X164559580Y-116861904D01*
X164559580Y-116861904D02*
X164607200Y-116814285D01*
X164607200Y-116814285D02*
X164654819Y-116719047D01*
X164654819Y-116719047D02*
X164654819Y-116528571D01*
X164654819Y-116528571D02*
X164607200Y-116433333D01*
X164607200Y-116433333D02*
X164559580Y-116385714D01*
X164559580Y-116385714D02*
X164464342Y-116338095D01*
X164464342Y-116338095D02*
X164226247Y-116338095D01*
X164226247Y-116338095D02*
X164131009Y-116385714D01*
X164131009Y-116385714D02*
X164083390Y-116433333D01*
X164083390Y-116433333D02*
X164035771Y-116528571D01*
X164035771Y-116528571D02*
X164035771Y-116719047D01*
X164035771Y-116719047D02*
X164083390Y-116814285D01*
X164083390Y-116814285D02*
X164131009Y-116861904D01*
X164131009Y-116861904D02*
X164226247Y-116909523D01*
X144657142Y-118359580D02*
X144609523Y-118407200D01*
X144609523Y-118407200D02*
X144466666Y-118454819D01*
X144466666Y-118454819D02*
X144371428Y-118454819D01*
X144371428Y-118454819D02*
X144228571Y-118407200D01*
X144228571Y-118407200D02*
X144133333Y-118311961D01*
X144133333Y-118311961D02*
X144085714Y-118216723D01*
X144085714Y-118216723D02*
X144038095Y-118026247D01*
X144038095Y-118026247D02*
X144038095Y-117883390D01*
X144038095Y-117883390D02*
X144085714Y-117692914D01*
X144085714Y-117692914D02*
X144133333Y-117597676D01*
X144133333Y-117597676D02*
X144228571Y-117502438D01*
X144228571Y-117502438D02*
X144371428Y-117454819D01*
X144371428Y-117454819D02*
X144466666Y-117454819D01*
X144466666Y-117454819D02*
X144609523Y-117502438D01*
X144609523Y-117502438D02*
X144657142Y-117550057D01*
X145609523Y-118454819D02*
X145038095Y-118454819D01*
X145323809Y-118454819D02*
X145323809Y-117454819D01*
X145323809Y-117454819D02*
X145228571Y-117597676D01*
X145228571Y-117597676D02*
X145133333Y-117692914D01*
X145133333Y-117692914D02*
X145038095Y-117740533D01*
X146561904Y-118454819D02*
X145990476Y-118454819D01*
X146276190Y-118454819D02*
X146276190Y-117454819D01*
X146276190Y-117454819D02*
X146180952Y-117597676D01*
X146180952Y-117597676D02*
X146085714Y-117692914D01*
X146085714Y-117692914D02*
X145990476Y-117740533D01*
X158679819Y-109516666D02*
X158203628Y-109849999D01*
X158679819Y-110088094D02*
X157679819Y-110088094D01*
X157679819Y-110088094D02*
X157679819Y-109707142D01*
X157679819Y-109707142D02*
X157727438Y-109611904D01*
X157727438Y-109611904D02*
X157775057Y-109564285D01*
X157775057Y-109564285D02*
X157870295Y-109516666D01*
X157870295Y-109516666D02*
X158013152Y-109516666D01*
X158013152Y-109516666D02*
X158108390Y-109564285D01*
X158108390Y-109564285D02*
X158156009Y-109611904D01*
X158156009Y-109611904D02*
X158203628Y-109707142D01*
X158203628Y-109707142D02*
X158203628Y-110088094D01*
X157679819Y-109183332D02*
X157679819Y-108516666D01*
X157679819Y-108516666D02*
X158679819Y-108945237D01*
X162454819Y-106166666D02*
X161978628Y-106499999D01*
X162454819Y-106738094D02*
X161454819Y-106738094D01*
X161454819Y-106738094D02*
X161454819Y-106357142D01*
X161454819Y-106357142D02*
X161502438Y-106261904D01*
X161502438Y-106261904D02*
X161550057Y-106214285D01*
X161550057Y-106214285D02*
X161645295Y-106166666D01*
X161645295Y-106166666D02*
X161788152Y-106166666D01*
X161788152Y-106166666D02*
X161883390Y-106214285D01*
X161883390Y-106214285D02*
X161931009Y-106261904D01*
X161931009Y-106261904D02*
X161978628Y-106357142D01*
X161978628Y-106357142D02*
X161978628Y-106738094D01*
X161454819Y-105261904D02*
X161454819Y-105738094D01*
X161454819Y-105738094D02*
X161931009Y-105785713D01*
X161931009Y-105785713D02*
X161883390Y-105738094D01*
X161883390Y-105738094D02*
X161835771Y-105642856D01*
X161835771Y-105642856D02*
X161835771Y-105404761D01*
X161835771Y-105404761D02*
X161883390Y-105309523D01*
X161883390Y-105309523D02*
X161931009Y-105261904D01*
X161931009Y-105261904D02*
X162026247Y-105214285D01*
X162026247Y-105214285D02*
X162264342Y-105214285D01*
X162264342Y-105214285D02*
X162359580Y-105261904D01*
X162359580Y-105261904D02*
X162407200Y-105309523D01*
X162407200Y-105309523D02*
X162454819Y-105404761D01*
X162454819Y-105404761D02*
X162454819Y-105642856D01*
X162454819Y-105642856D02*
X162407200Y-105738094D01*
X162407200Y-105738094D02*
X162359580Y-105785713D01*
X146638095Y-82404819D02*
X147209523Y-82404819D01*
X146923809Y-83404819D02*
X146923809Y-82404819D01*
X147542857Y-83404819D02*
X147542857Y-82404819D01*
X147542857Y-82404819D02*
X147923809Y-82404819D01*
X147923809Y-82404819D02*
X148019047Y-82452438D01*
X148019047Y-82452438D02*
X148066666Y-82500057D01*
X148066666Y-82500057D02*
X148114285Y-82595295D01*
X148114285Y-82595295D02*
X148114285Y-82738152D01*
X148114285Y-82738152D02*
X148066666Y-82833390D01*
X148066666Y-82833390D02*
X148019047Y-82881009D01*
X148019047Y-82881009D02*
X147923809Y-82928628D01*
X147923809Y-82928628D02*
X147542857Y-82928628D01*
X149066666Y-83404819D02*
X148495238Y-83404819D01*
X148780952Y-83404819D02*
X148780952Y-82404819D01*
X148780952Y-82404819D02*
X148685714Y-82547676D01*
X148685714Y-82547676D02*
X148590476Y-82642914D01*
X148590476Y-82642914D02*
X148495238Y-82690533D01*
X146257142Y-112704819D02*
X145923809Y-112228628D01*
X145685714Y-112704819D02*
X145685714Y-111704819D01*
X145685714Y-111704819D02*
X146066666Y-111704819D01*
X146066666Y-111704819D02*
X146161904Y-111752438D01*
X146161904Y-111752438D02*
X146209523Y-111800057D01*
X146209523Y-111800057D02*
X146257142Y-111895295D01*
X146257142Y-111895295D02*
X146257142Y-112038152D01*
X146257142Y-112038152D02*
X146209523Y-112133390D01*
X146209523Y-112133390D02*
X146161904Y-112181009D01*
X146161904Y-112181009D02*
X146066666Y-112228628D01*
X146066666Y-112228628D02*
X145685714Y-112228628D01*
X147209523Y-112704819D02*
X146638095Y-112704819D01*
X146923809Y-112704819D02*
X146923809Y-111704819D01*
X146923809Y-111704819D02*
X146828571Y-111847676D01*
X146828571Y-111847676D02*
X146733333Y-111942914D01*
X146733333Y-111942914D02*
X146638095Y-111990533D01*
X147542857Y-111704819D02*
X148161904Y-111704819D01*
X148161904Y-111704819D02*
X147828571Y-112085771D01*
X147828571Y-112085771D02*
X147971428Y-112085771D01*
X147971428Y-112085771D02*
X148066666Y-112133390D01*
X148066666Y-112133390D02*
X148114285Y-112181009D01*
X148114285Y-112181009D02*
X148161904Y-112276247D01*
X148161904Y-112276247D02*
X148161904Y-112514342D01*
X148161904Y-112514342D02*
X148114285Y-112609580D01*
X148114285Y-112609580D02*
X148066666Y-112657200D01*
X148066666Y-112657200D02*
X147971428Y-112704819D01*
X147971428Y-112704819D02*
X147685714Y-112704819D01*
X147685714Y-112704819D02*
X147590476Y-112657200D01*
X147590476Y-112657200D02*
X147542857Y-112609580D01*
X152604819Y-119011904D02*
X153414342Y-119011904D01*
X153414342Y-119011904D02*
X153509580Y-118964285D01*
X153509580Y-118964285D02*
X153557200Y-118916666D01*
X153557200Y-118916666D02*
X153604819Y-118821428D01*
X153604819Y-118821428D02*
X153604819Y-118630952D01*
X153604819Y-118630952D02*
X153557200Y-118535714D01*
X153557200Y-118535714D02*
X153509580Y-118488095D01*
X153509580Y-118488095D02*
X153414342Y-118440476D01*
X153414342Y-118440476D02*
X152604819Y-118440476D01*
X152604819Y-117488095D02*
X152604819Y-117964285D01*
X152604819Y-117964285D02*
X153081009Y-118011904D01*
X153081009Y-118011904D02*
X153033390Y-117964285D01*
X153033390Y-117964285D02*
X152985771Y-117869047D01*
X152985771Y-117869047D02*
X152985771Y-117630952D01*
X152985771Y-117630952D02*
X153033390Y-117535714D01*
X153033390Y-117535714D02*
X153081009Y-117488095D01*
X153081009Y-117488095D02*
X153176247Y-117440476D01*
X153176247Y-117440476D02*
X153414342Y-117440476D01*
X153414342Y-117440476D02*
X153509580Y-117488095D01*
X153509580Y-117488095D02*
X153557200Y-117535714D01*
X153557200Y-117535714D02*
X153604819Y-117630952D01*
X153604819Y-117630952D02*
X153604819Y-117869047D01*
X153604819Y-117869047D02*
X153557200Y-117964285D01*
X153557200Y-117964285D02*
X153509580Y-118011904D01*
X156538095Y-82554819D02*
X157109523Y-82554819D01*
X156823809Y-83554819D02*
X156823809Y-82554819D01*
X157442857Y-83554819D02*
X157442857Y-82554819D01*
X157442857Y-82554819D02*
X157823809Y-82554819D01*
X157823809Y-82554819D02*
X157919047Y-82602438D01*
X157919047Y-82602438D02*
X157966666Y-82650057D01*
X157966666Y-82650057D02*
X158014285Y-82745295D01*
X158014285Y-82745295D02*
X158014285Y-82888152D01*
X158014285Y-82888152D02*
X157966666Y-82983390D01*
X157966666Y-82983390D02*
X157919047Y-83031009D01*
X157919047Y-83031009D02*
X157823809Y-83078628D01*
X157823809Y-83078628D02*
X157442857Y-83078628D01*
X158395238Y-82650057D02*
X158442857Y-82602438D01*
X158442857Y-82602438D02*
X158538095Y-82554819D01*
X158538095Y-82554819D02*
X158776190Y-82554819D01*
X158776190Y-82554819D02*
X158871428Y-82602438D01*
X158871428Y-82602438D02*
X158919047Y-82650057D01*
X158919047Y-82650057D02*
X158966666Y-82745295D01*
X158966666Y-82745295D02*
X158966666Y-82840533D01*
X158966666Y-82840533D02*
X158919047Y-82983390D01*
X158919047Y-82983390D02*
X158347619Y-83554819D01*
X158347619Y-83554819D02*
X158966666Y-83554819D01*
X157254819Y-121642857D02*
X156778628Y-121976190D01*
X157254819Y-122214285D02*
X156254819Y-122214285D01*
X156254819Y-122214285D02*
X156254819Y-121833333D01*
X156254819Y-121833333D02*
X156302438Y-121738095D01*
X156302438Y-121738095D02*
X156350057Y-121690476D01*
X156350057Y-121690476D02*
X156445295Y-121642857D01*
X156445295Y-121642857D02*
X156588152Y-121642857D01*
X156588152Y-121642857D02*
X156683390Y-121690476D01*
X156683390Y-121690476D02*
X156731009Y-121738095D01*
X156731009Y-121738095D02*
X156778628Y-121833333D01*
X156778628Y-121833333D02*
X156778628Y-122214285D01*
X157254819Y-120690476D02*
X157254819Y-121261904D01*
X157254819Y-120976190D02*
X156254819Y-120976190D01*
X156254819Y-120976190D02*
X156397676Y-121071428D01*
X156397676Y-121071428D02*
X156492914Y-121166666D01*
X156492914Y-121166666D02*
X156540533Y-121261904D01*
X156254819Y-120071428D02*
X156254819Y-119976190D01*
X156254819Y-119976190D02*
X156302438Y-119880952D01*
X156302438Y-119880952D02*
X156350057Y-119833333D01*
X156350057Y-119833333D02*
X156445295Y-119785714D01*
X156445295Y-119785714D02*
X156635771Y-119738095D01*
X156635771Y-119738095D02*
X156873866Y-119738095D01*
X156873866Y-119738095D02*
X157064342Y-119785714D01*
X157064342Y-119785714D02*
X157159580Y-119833333D01*
X157159580Y-119833333D02*
X157207200Y-119880952D01*
X157207200Y-119880952D02*
X157254819Y-119976190D01*
X157254819Y-119976190D02*
X157254819Y-120071428D01*
X157254819Y-120071428D02*
X157207200Y-120166666D01*
X157207200Y-120166666D02*
X157159580Y-120214285D01*
X157159580Y-120214285D02*
X157064342Y-120261904D01*
X157064342Y-120261904D02*
X156873866Y-120309523D01*
X156873866Y-120309523D02*
X156635771Y-120309523D01*
X156635771Y-120309523D02*
X156445295Y-120261904D01*
X156445295Y-120261904D02*
X156350057Y-120214285D01*
X156350057Y-120214285D02*
X156302438Y-120166666D01*
X156302438Y-120166666D02*
X156254819Y-120071428D01*
X155954819Y-121642857D02*
X155478628Y-121976190D01*
X155954819Y-122214285D02*
X154954819Y-122214285D01*
X154954819Y-122214285D02*
X154954819Y-121833333D01*
X154954819Y-121833333D02*
X155002438Y-121738095D01*
X155002438Y-121738095D02*
X155050057Y-121690476D01*
X155050057Y-121690476D02*
X155145295Y-121642857D01*
X155145295Y-121642857D02*
X155288152Y-121642857D01*
X155288152Y-121642857D02*
X155383390Y-121690476D01*
X155383390Y-121690476D02*
X155431009Y-121738095D01*
X155431009Y-121738095D02*
X155478628Y-121833333D01*
X155478628Y-121833333D02*
X155478628Y-122214285D01*
X155954819Y-120690476D02*
X155954819Y-121261904D01*
X155954819Y-120976190D02*
X154954819Y-120976190D01*
X154954819Y-120976190D02*
X155097676Y-121071428D01*
X155097676Y-121071428D02*
X155192914Y-121166666D01*
X155192914Y-121166666D02*
X155240533Y-121261904D01*
X155954819Y-119738095D02*
X155954819Y-120309523D01*
X155954819Y-120023809D02*
X154954819Y-120023809D01*
X154954819Y-120023809D02*
X155097676Y-120119047D01*
X155097676Y-120119047D02*
X155192914Y-120214285D01*
X155192914Y-120214285D02*
X155240533Y-120309523D01*
X158504761Y-116050057D02*
X158409523Y-116002438D01*
X158409523Y-116002438D02*
X158314285Y-115907200D01*
X158314285Y-115907200D02*
X158171428Y-115764342D01*
X158171428Y-115764342D02*
X158076190Y-115716723D01*
X158076190Y-115716723D02*
X157980952Y-115716723D01*
X158028571Y-115954819D02*
X157933333Y-115907200D01*
X157933333Y-115907200D02*
X157838095Y-115811961D01*
X157838095Y-115811961D02*
X157790476Y-115621485D01*
X157790476Y-115621485D02*
X157790476Y-115288152D01*
X157790476Y-115288152D02*
X157838095Y-115097676D01*
X157838095Y-115097676D02*
X157933333Y-115002438D01*
X157933333Y-115002438D02*
X158028571Y-114954819D01*
X158028571Y-114954819D02*
X158219047Y-114954819D01*
X158219047Y-114954819D02*
X158314285Y-115002438D01*
X158314285Y-115002438D02*
X158409523Y-115097676D01*
X158409523Y-115097676D02*
X158457142Y-115288152D01*
X158457142Y-115288152D02*
X158457142Y-115621485D01*
X158457142Y-115621485D02*
X158409523Y-115811961D01*
X158409523Y-115811961D02*
X158314285Y-115907200D01*
X158314285Y-115907200D02*
X158219047Y-115954819D01*
X158219047Y-115954819D02*
X158028571Y-115954819D01*
X159361904Y-114954819D02*
X158885714Y-114954819D01*
X158885714Y-114954819D02*
X158838095Y-115431009D01*
X158838095Y-115431009D02*
X158885714Y-115383390D01*
X158885714Y-115383390D02*
X158980952Y-115335771D01*
X158980952Y-115335771D02*
X159219047Y-115335771D01*
X159219047Y-115335771D02*
X159314285Y-115383390D01*
X159314285Y-115383390D02*
X159361904Y-115431009D01*
X159361904Y-115431009D02*
X159409523Y-115526247D01*
X159409523Y-115526247D02*
X159409523Y-115764342D01*
X159409523Y-115764342D02*
X159361904Y-115859580D01*
X159361904Y-115859580D02*
X159314285Y-115907200D01*
X159314285Y-115907200D02*
X159219047Y-115954819D01*
X159219047Y-115954819D02*
X158980952Y-115954819D01*
X158980952Y-115954819D02*
X158885714Y-115907200D01*
X158885714Y-115907200D02*
X158838095Y-115859580D01*
X160457142Y-115554819D02*
X160123809Y-115078628D01*
X159885714Y-115554819D02*
X159885714Y-114554819D01*
X159885714Y-114554819D02*
X160266666Y-114554819D01*
X160266666Y-114554819D02*
X160361904Y-114602438D01*
X160361904Y-114602438D02*
X160409523Y-114650057D01*
X160409523Y-114650057D02*
X160457142Y-114745295D01*
X160457142Y-114745295D02*
X160457142Y-114888152D01*
X160457142Y-114888152D02*
X160409523Y-114983390D01*
X160409523Y-114983390D02*
X160361904Y-115031009D01*
X160361904Y-115031009D02*
X160266666Y-115078628D01*
X160266666Y-115078628D02*
X159885714Y-115078628D01*
X161409523Y-115554819D02*
X160838095Y-115554819D01*
X161123809Y-115554819D02*
X161123809Y-114554819D01*
X161123809Y-114554819D02*
X161028571Y-114697676D01*
X161028571Y-114697676D02*
X160933333Y-114792914D01*
X160933333Y-114792914D02*
X160838095Y-114840533D01*
X162314285Y-114554819D02*
X161838095Y-114554819D01*
X161838095Y-114554819D02*
X161790476Y-115031009D01*
X161790476Y-115031009D02*
X161838095Y-114983390D01*
X161838095Y-114983390D02*
X161933333Y-114935771D01*
X161933333Y-114935771D02*
X162171428Y-114935771D01*
X162171428Y-114935771D02*
X162266666Y-114983390D01*
X162266666Y-114983390D02*
X162314285Y-115031009D01*
X162314285Y-115031009D02*
X162361904Y-115126247D01*
X162361904Y-115126247D02*
X162361904Y-115364342D01*
X162361904Y-115364342D02*
X162314285Y-115459580D01*
X162314285Y-115459580D02*
X162266666Y-115507200D01*
X162266666Y-115507200D02*
X162171428Y-115554819D01*
X162171428Y-115554819D02*
X161933333Y-115554819D01*
X161933333Y-115554819D02*
X161838095Y-115507200D01*
X161838095Y-115507200D02*
X161790476Y-115459580D01*
X168954819Y-121042857D02*
X168478628Y-121376190D01*
X168954819Y-121614285D02*
X167954819Y-121614285D01*
X167954819Y-121614285D02*
X167954819Y-121233333D01*
X167954819Y-121233333D02*
X168002438Y-121138095D01*
X168002438Y-121138095D02*
X168050057Y-121090476D01*
X168050057Y-121090476D02*
X168145295Y-121042857D01*
X168145295Y-121042857D02*
X168288152Y-121042857D01*
X168288152Y-121042857D02*
X168383390Y-121090476D01*
X168383390Y-121090476D02*
X168431009Y-121138095D01*
X168431009Y-121138095D02*
X168478628Y-121233333D01*
X168478628Y-121233333D02*
X168478628Y-121614285D01*
X168954819Y-120090476D02*
X168954819Y-120661904D01*
X168954819Y-120376190D02*
X167954819Y-120376190D01*
X167954819Y-120376190D02*
X168097676Y-120471428D01*
X168097676Y-120471428D02*
X168192914Y-120566666D01*
X168192914Y-120566666D02*
X168240533Y-120661904D01*
X168050057Y-119709523D02*
X168002438Y-119661904D01*
X168002438Y-119661904D02*
X167954819Y-119566666D01*
X167954819Y-119566666D02*
X167954819Y-119328571D01*
X167954819Y-119328571D02*
X168002438Y-119233333D01*
X168002438Y-119233333D02*
X168050057Y-119185714D01*
X168050057Y-119185714D02*
X168145295Y-119138095D01*
X168145295Y-119138095D02*
X168240533Y-119138095D01*
X168240533Y-119138095D02*
X168383390Y-119185714D01*
X168383390Y-119185714D02*
X168954819Y-119757142D01*
X168954819Y-119757142D02*
X168954819Y-119138095D01*
X170154819Y-121042857D02*
X169678628Y-121376190D01*
X170154819Y-121614285D02*
X169154819Y-121614285D01*
X169154819Y-121614285D02*
X169154819Y-121233333D01*
X169154819Y-121233333D02*
X169202438Y-121138095D01*
X169202438Y-121138095D02*
X169250057Y-121090476D01*
X169250057Y-121090476D02*
X169345295Y-121042857D01*
X169345295Y-121042857D02*
X169488152Y-121042857D01*
X169488152Y-121042857D02*
X169583390Y-121090476D01*
X169583390Y-121090476D02*
X169631009Y-121138095D01*
X169631009Y-121138095D02*
X169678628Y-121233333D01*
X169678628Y-121233333D02*
X169678628Y-121614285D01*
X170154819Y-120090476D02*
X170154819Y-120661904D01*
X170154819Y-120376190D02*
X169154819Y-120376190D01*
X169154819Y-120376190D02*
X169297676Y-120471428D01*
X169297676Y-120471428D02*
X169392914Y-120566666D01*
X169392914Y-120566666D02*
X169440533Y-120661904D01*
X169154819Y-119757142D02*
X169154819Y-119090476D01*
X169154819Y-119090476D02*
X170154819Y-119519047D01*
D12*
%TO.C,Q1*%
X162740000Y-109080000D02*
X164900000Y-109080000D01*
X162740000Y-109080000D02*
X162740000Y-108150000D01*
X162740000Y-105920000D02*
X164200000Y-105920000D01*
X162740000Y-105920000D02*
X162740000Y-106850000D01*
%TO.C,R1*%
X166522500Y-106987742D02*
X166522500Y-107462258D01*
X165477500Y-106987742D02*
X165477500Y-107462258D01*
%TO.C,U2*%
X150749000Y-111272000D02*
X152699000Y-111272000D01*
X150749000Y-111272000D02*
X148799000Y-111272000D01*
X150749000Y-106152000D02*
X152699000Y-106152000D01*
X150749000Y-106152000D02*
X147299000Y-106152000D01*
%TO.C,C4*%
X155810000Y-108459420D02*
X155810000Y-108740580D01*
X154790000Y-108459420D02*
X154790000Y-108740580D01*
%TO.C,L2*%
X152060000Y-122360000D02*
X152060000Y-121560000D01*
X152060000Y-122360000D02*
X146940000Y-122360000D01*
X152060000Y-117740000D02*
X152060000Y-118540000D01*
X152060000Y-117740000D02*
X146940000Y-117740000D01*
X146940000Y-122360000D02*
X146940000Y-121560000D01*
X146940000Y-117740000D02*
X146940000Y-118540000D01*
%TO.C,C5*%
X145710000Y-91390580D02*
X145710000Y-91109420D01*
X144690000Y-91390580D02*
X144690000Y-91109420D01*
%TO.C,Q2*%
X159490000Y-113780000D02*
X161650000Y-113780000D01*
X159490000Y-113780000D02*
X159490000Y-112850000D01*
X159490000Y-110620000D02*
X160950000Y-110620000D01*
X159490000Y-110620000D02*
X159490000Y-111550000D01*
%TO.C,R3*%
X163222500Y-111037258D02*
X163222500Y-110562742D01*
X162177500Y-111037258D02*
X162177500Y-110562742D01*
%TO.C,R6*%
X157322500Y-108362742D02*
X157322500Y-108837258D01*
X156277500Y-108362742D02*
X156277500Y-108837258D01*
%TO.C,R2*%
X168022500Y-106987742D02*
X168022500Y-107462258D01*
X166977500Y-106987742D02*
X166977500Y-107462258D01*
%TO.C,D1*%
X157200000Y-110265000D02*
X154915000Y-110265000D01*
X154915000Y-111735000D02*
X157200000Y-111735000D01*
X154915000Y-110265000D02*
X154915000Y-111735000D01*
%TO.C,R14*%
X150837742Y-113322500D02*
X151312258Y-113322500D01*
X150837742Y-112277500D02*
X151312258Y-112277500D01*
%TO.C,R8*%
X156712258Y-113022500D02*
X156237742Y-113022500D01*
X156712258Y-111977500D02*
X156237742Y-111977500D01*
%TO.C,C10*%
X154685000Y-115309420D02*
X154685000Y-115590580D01*
X153665000Y-115309420D02*
X153665000Y-115590580D01*
%TO.C,C6*%
X145710000Y-95984420D02*
X145710000Y-96265580D01*
X144690000Y-95984420D02*
X144690000Y-96265580D01*
%TO.C,R9*%
X144422500Y-85612742D02*
X144422500Y-86087258D01*
X143377500Y-85612742D02*
X143377500Y-86087258D01*
%TO.C,C12*%
X147159420Y-117110000D02*
X147440580Y-117110000D01*
X147159420Y-116090000D02*
X147440580Y-116090000D01*
%TO.C,C1*%
X159810000Y-107234420D02*
X159810000Y-107515580D01*
X158790000Y-107234420D02*
X158790000Y-107515580D01*
%TO.C,R4*%
X156562742Y-114722500D02*
X157037258Y-114722500D01*
X156562742Y-113677500D02*
X157037258Y-113677500D01*
%TO.C,C13*%
X144210000Y-91390580D02*
X144210000Y-91109420D01*
X143190000Y-91390580D02*
X143190000Y-91109420D01*
%TO.C,C2*%
X145910000Y-85990580D02*
X145910000Y-85709420D01*
X144890000Y-85990580D02*
X144890000Y-85709420D01*
%TO.C,C3*%
X144565580Y-89510000D02*
X144284420Y-89510000D01*
X144565580Y-88490000D02*
X144284420Y-88490000D01*
%TO.C,J4*%
X168300000Y-115900000D02*
X168100000Y-116100000D01*
X168300000Y-115300000D02*
X168800000Y-115300000D01*
X168300000Y-115300000D02*
X168300000Y-115900000D01*
X168300000Y-113900000D02*
X168800000Y-113900000D01*
X168300000Y-113100000D02*
X168300000Y-113900000D01*
X168100000Y-113100000D02*
X168300000Y-113100000D01*
X165500000Y-116100000D02*
X165300000Y-116100000D01*
X165300000Y-116100000D02*
X165300000Y-115300000D01*
X165300000Y-113900000D02*
X165300000Y-113100000D01*
X165300000Y-113100000D02*
X165500000Y-113100000D01*
%TO.C,Q4*%
X164580000Y-119840000D02*
X164580000Y-121300000D01*
X164580000Y-119840000D02*
X163650000Y-119840000D01*
X161420000Y-119840000D02*
X162350000Y-119840000D01*
X161420000Y-119840000D02*
X161420000Y-122000000D01*
%TO.C,R16*%
X161822500Y-117162742D02*
X161822500Y-117637258D01*
X160777500Y-117162742D02*
X160777500Y-117637258D01*
%TO.C,C11*%
X147159420Y-115610000D02*
X147440580Y-115610000D01*
X147159420Y-114590000D02*
X147440580Y-114590000D01*
%TO.C,R7*%
X159812742Y-110222500D02*
X160287258Y-110222500D01*
X159812742Y-109177500D02*
X160287258Y-109177500D01*
%TO.C,R5*%
X161322500Y-107137742D02*
X161322500Y-107612258D01*
X160277500Y-107137742D02*
X160277500Y-107612258D01*
%TO.C,TP1*%
X150800000Y-83100000D02*
G75*
G02*
X149400000Y-83100000I-700000J0D01*
G01*
X149400000Y-83100000D02*
G75*
G02*
X150800000Y-83100000I700000J0D01*
G01*
%TO.C,R13*%
X147062742Y-114122500D02*
X147537258Y-114122500D01*
X147062742Y-113077500D02*
X147537258Y-113077500D01*
%TO.C,U5*%
X153010000Y-116350000D02*
X153010000Y-114550000D01*
X149790000Y-114550000D02*
X149790000Y-117000000D01*
%TO.C,TP2*%
X156000000Y-83000000D02*
G75*
G02*
X154600000Y-83000000I-700000J0D01*
G01*
X154600000Y-83000000D02*
G75*
G02*
X156000000Y-83000000I700000J0D01*
G01*
%TO.C,R10*%
X160222500Y-120662742D02*
X160222500Y-121137258D01*
X159177500Y-120662742D02*
X159177500Y-121137258D01*
%TO.C,R11*%
X158622500Y-120637742D02*
X158622500Y-121112258D01*
X157577500Y-120637742D02*
X157577500Y-121112258D01*
%TO.C,Q5*%
X160280000Y-116840000D02*
X160280000Y-118300000D01*
X160280000Y-116840000D02*
X159350000Y-116840000D01*
X157120000Y-116840000D02*
X158050000Y-116840000D01*
X157120000Y-116840000D02*
X157120000Y-119000000D01*
%TO.C,R15*%
X163322500Y-117162742D02*
X163322500Y-117637258D01*
X162277500Y-117162742D02*
X162277500Y-117637258D01*
%TO.C,R12*%
X166072500Y-120162742D02*
X166072500Y-120637258D01*
X165027500Y-120162742D02*
X165027500Y-120637258D01*
%TO.C,R17*%
X167572500Y-120637258D02*
X167572500Y-120162742D01*
X166527500Y-120637258D02*
X166527500Y-120162742D01*
D13*
%TO.C,U1*%
X146600000Y-86190000D02*
G75*
G02*
X146500000Y-86190000I-50000J0D01*
G01*
X146500000Y-86190000D02*
G75*
G02*
X146600000Y-86190000I50000J0D01*
G01*
D10*
X165600000Y-104200000D02*
X163000000Y-104200000D01*
X165600000Y-103400000D02*
X165600000Y-104200000D01*
X165600000Y-85400000D02*
X165600000Y-85000000D01*
X165600000Y-85000000D02*
X147600000Y-85000000D01*
X147600000Y-104200000D02*
X150200000Y-104200000D01*
X147600000Y-103400000D02*
X147600000Y-104200000D01*
X147600000Y-85000000D02*
X147600000Y-85400000D01*
D13*
X146600000Y-86190000D02*
X146600000Y-86190000D01*
X146500000Y-86190000D02*
X146500000Y-86190000D01*
%TD*%
M02*
