%TF.GenerationSoftware,KiCad,Pcbnew,8.0.1*%
%TF.CreationDate,2024-04-03T20:26:05-05:00*%
%TF.ProjectId,meshtastic-diy,6d657368-7461-4737-9469-632d6469792e,2.1*%
%TF.SameCoordinates,Original*%
%TF.FileFunction,Legend,Bot*%
%TF.FilePolarity,Positive*%
%FSLAX46Y46*%
G04 Gerber Fmt 4.6, Leading zero omitted, Abs format (unit mm)*
G04 Created by KiCad (PCBNEW 8.0.1) date 2024-04-03 20:26:05*
%MOMM*%
%LPD*%
G01*
G04 APERTURE LIST*
%ADD10C,0.150000*%
%ADD11C,0.120000*%
G04 APERTURE END LIST*
D10*
X152180951Y-98945180D02*
X152180951Y-98230895D01*
X152180951Y-98230895D02*
X152133332Y-98088038D01*
X152133332Y-98088038D02*
X152038094Y-97992800D01*
X152038094Y-97992800D02*
X151895237Y-97945180D01*
X151895237Y-97945180D02*
X151799999Y-97945180D01*
X153133332Y-97945180D02*
X152657142Y-97945180D01*
X152657142Y-97945180D02*
X152657142Y-98945180D01*
X154038094Y-98040419D02*
X153990475Y-97992800D01*
X153990475Y-97992800D02*
X153847618Y-97945180D01*
X153847618Y-97945180D02*
X153752380Y-97945180D01*
X153752380Y-97945180D02*
X153609523Y-97992800D01*
X153609523Y-97992800D02*
X153514285Y-98088038D01*
X153514285Y-98088038D02*
X153466666Y-98183276D01*
X153466666Y-98183276D02*
X153419047Y-98373752D01*
X153419047Y-98373752D02*
X153419047Y-98516609D01*
X153419047Y-98516609D02*
X153466666Y-98707085D01*
X153466666Y-98707085D02*
X153514285Y-98802323D01*
X153514285Y-98802323D02*
X153609523Y-98897561D01*
X153609523Y-98897561D02*
X153752380Y-98945180D01*
X153752380Y-98945180D02*
X153847618Y-98945180D01*
X153847618Y-98945180D02*
X153990475Y-98897561D01*
X153990475Y-98897561D02*
X154038094Y-98849942D01*
X154752380Y-98945180D02*
X154752380Y-98230895D01*
X154752380Y-98230895D02*
X154704761Y-98088038D01*
X154704761Y-98088038D02*
X154609523Y-97992800D01*
X154609523Y-97992800D02*
X154466666Y-97945180D01*
X154466666Y-97945180D02*
X154371428Y-97945180D01*
X155704761Y-97945180D02*
X155228571Y-97945180D01*
X155228571Y-97945180D02*
X155228571Y-98945180D01*
X156609523Y-98040419D02*
X156561904Y-97992800D01*
X156561904Y-97992800D02*
X156419047Y-97945180D01*
X156419047Y-97945180D02*
X156323809Y-97945180D01*
X156323809Y-97945180D02*
X156180952Y-97992800D01*
X156180952Y-97992800D02*
X156085714Y-98088038D01*
X156085714Y-98088038D02*
X156038095Y-98183276D01*
X156038095Y-98183276D02*
X155990476Y-98373752D01*
X155990476Y-98373752D02*
X155990476Y-98516609D01*
X155990476Y-98516609D02*
X156038095Y-98707085D01*
X156038095Y-98707085D02*
X156085714Y-98802323D01*
X156085714Y-98802323D02*
X156180952Y-98897561D01*
X156180952Y-98897561D02*
X156323809Y-98945180D01*
X156323809Y-98945180D02*
X156419047Y-98945180D01*
X156419047Y-98945180D02*
X156561904Y-98897561D01*
X156561904Y-98897561D02*
X156609523Y-98849942D01*
X157323809Y-98945180D02*
X157323809Y-98230895D01*
X157323809Y-98230895D02*
X157276190Y-98088038D01*
X157276190Y-98088038D02*
X157180952Y-97992800D01*
X157180952Y-97992800D02*
X157038095Y-97945180D01*
X157038095Y-97945180D02*
X156942857Y-97945180D01*
X158276190Y-97945180D02*
X157800000Y-97945180D01*
X157800000Y-97945180D02*
X157800000Y-98945180D01*
X159180952Y-98040419D02*
X159133333Y-97992800D01*
X159133333Y-97992800D02*
X158990476Y-97945180D01*
X158990476Y-97945180D02*
X158895238Y-97945180D01*
X158895238Y-97945180D02*
X158752381Y-97992800D01*
X158752381Y-97992800D02*
X158657143Y-98088038D01*
X158657143Y-98088038D02*
X158609524Y-98183276D01*
X158609524Y-98183276D02*
X158561905Y-98373752D01*
X158561905Y-98373752D02*
X158561905Y-98516609D01*
X158561905Y-98516609D02*
X158609524Y-98707085D01*
X158609524Y-98707085D02*
X158657143Y-98802323D01*
X158657143Y-98802323D02*
X158752381Y-98897561D01*
X158752381Y-98897561D02*
X158895238Y-98945180D01*
X158895238Y-98945180D02*
X158990476Y-98945180D01*
X158990476Y-98945180D02*
X159133333Y-98897561D01*
X159133333Y-98897561D02*
X159180952Y-98849942D01*
X159895238Y-98945180D02*
X159895238Y-98230895D01*
X159895238Y-98230895D02*
X159847619Y-98088038D01*
X159847619Y-98088038D02*
X159752381Y-97992800D01*
X159752381Y-97992800D02*
X159609524Y-97945180D01*
X159609524Y-97945180D02*
X159514286Y-97945180D01*
X160847619Y-97945180D02*
X160371429Y-97945180D01*
X160371429Y-97945180D02*
X160371429Y-98945180D01*
X161752381Y-98040419D02*
X161704762Y-97992800D01*
X161704762Y-97992800D02*
X161561905Y-97945180D01*
X161561905Y-97945180D02*
X161466667Y-97945180D01*
X161466667Y-97945180D02*
X161323810Y-97992800D01*
X161323810Y-97992800D02*
X161228572Y-98088038D01*
X161228572Y-98088038D02*
X161180953Y-98183276D01*
X161180953Y-98183276D02*
X161133334Y-98373752D01*
X161133334Y-98373752D02*
X161133334Y-98516609D01*
X161133334Y-98516609D02*
X161180953Y-98707085D01*
X161180953Y-98707085D02*
X161228572Y-98802323D01*
X161228572Y-98802323D02*
X161323810Y-98897561D01*
X161323810Y-98897561D02*
X161466667Y-98945180D01*
X161466667Y-98945180D02*
X161561905Y-98945180D01*
X161561905Y-98945180D02*
X161704762Y-98897561D01*
X161704762Y-98897561D02*
X161752381Y-98849942D01*
X169254819Y-121138095D02*
X170064342Y-121138095D01*
X170064342Y-121138095D02*
X170159580Y-121185714D01*
X170159580Y-121185714D02*
X170207200Y-121233333D01*
X170207200Y-121233333D02*
X170254819Y-121328571D01*
X170254819Y-121328571D02*
X170254819Y-121519047D01*
X170254819Y-121519047D02*
X170207200Y-121614285D01*
X170207200Y-121614285D02*
X170159580Y-121661904D01*
X170159580Y-121661904D02*
X170064342Y-121709523D01*
X170064342Y-121709523D02*
X169254819Y-121709523D01*
X169254819Y-122090476D02*
X169254819Y-122709523D01*
X169254819Y-122709523D02*
X169635771Y-122376190D01*
X169635771Y-122376190D02*
X169635771Y-122519047D01*
X169635771Y-122519047D02*
X169683390Y-122614285D01*
X169683390Y-122614285D02*
X169731009Y-122661904D01*
X169731009Y-122661904D02*
X169826247Y-122709523D01*
X169826247Y-122709523D02*
X170064342Y-122709523D01*
X170064342Y-122709523D02*
X170159580Y-122661904D01*
X170159580Y-122661904D02*
X170207200Y-122614285D01*
X170207200Y-122614285D02*
X170254819Y-122519047D01*
X170254819Y-122519047D02*
X170254819Y-122233333D01*
X170254819Y-122233333D02*
X170207200Y-122138095D01*
X170207200Y-122138095D02*
X170159580Y-122090476D01*
X166476189Y-120804819D02*
X166476189Y-119804819D01*
X165999999Y-120804819D02*
X165999999Y-119804819D01*
X165999999Y-119804819D02*
X165619047Y-119804819D01*
X165619047Y-119804819D02*
X165523809Y-119852438D01*
X165523809Y-119852438D02*
X165476190Y-119900057D01*
X165476190Y-119900057D02*
X165428571Y-119995295D01*
X165428571Y-119995295D02*
X165428571Y-120138152D01*
X165428571Y-120138152D02*
X165476190Y-120233390D01*
X165476190Y-120233390D02*
X165523809Y-120281009D01*
X165523809Y-120281009D02*
X165619047Y-120328628D01*
X165619047Y-120328628D02*
X165999999Y-120328628D01*
X165095237Y-119804819D02*
X164428571Y-120804819D01*
X164428571Y-119804819D02*
X165095237Y-120804819D01*
D11*
%TO.C,U3*%
X144000000Y-83350000D02*
X144000000Y-84850000D01*
X144000000Y-118350000D02*
X144000000Y-122850000D01*
X144000000Y-122850000D02*
X149000000Y-122850000D01*
X149500000Y-83350000D02*
X144000000Y-83350000D01*
X163500000Y-83350000D02*
X169000000Y-83350000D01*
X164000000Y-118850000D02*
X164000000Y-121350000D01*
X167000000Y-118850000D02*
X164000000Y-118850000D01*
X167000000Y-118850000D02*
X167000000Y-121350000D01*
X167000000Y-121350000D02*
X164000000Y-121350000D01*
X169000000Y-83350000D02*
X169000000Y-84850000D01*
X169000000Y-122850000D02*
X163500000Y-122850000D01*
X169000000Y-122850000D02*
X169000000Y-118350000D01*
%TD*%
M02*
