%TF.GenerationSoftware,KiCad,Pcbnew,8.0.1*%
%TF.CreationDate,2024-04-03T20:26:18-05:00*%
%TF.ProjectId,meshtastic-diy,6d657368-7461-4737-9469-632d6469792e,2.1*%
%TF.SameCoordinates,Original*%
%TF.FileFunction,Drillmap*%
%TF.FilePolarity,Positive*%
%FSLAX45Y45*%
G04 Gerber Fmt 4.5, Leading zero omitted, Abs format (unit mm)*
G04 Created by KiCad (PCBNEW 8.0.1) date 2024-04-03 20:26:18*
%MOMM*%
%LPD*%
G01*
G04 APERTURE LIST*
%ADD10C,0.050000*%
%ADD11C,0.200000*%
%ADD12C,0.115200*%
G04 APERTURE END LIST*
D10*
X17050000Y-7970000D02*
X14250000Y-7970000D01*
X17050000Y-12630000D02*
X17050000Y-7970000D01*
X14250000Y-7970000D02*
X14250000Y-12630000D01*
X14250000Y-12630000D02*
X17050000Y-12630000D01*
D11*
D12*
X14348750Y-12412400D02*
X14463950Y-12527600D01*
X14463950Y-12412400D02*
X14348750Y-12527600D01*
X16842400Y-8352400D02*
X16957600Y-8467600D01*
X16957600Y-8352400D02*
X16842400Y-8467600D01*
D11*
X14508277Y-12943984D02*
X14508277Y-12743984D01*
X14508277Y-12743984D02*
X14555896Y-12743984D01*
X14555896Y-12743984D02*
X14584467Y-12753508D01*
X14584467Y-12753508D02*
X14603515Y-12772555D01*
X14603515Y-12772555D02*
X14613039Y-12791603D01*
X14613039Y-12791603D02*
X14622562Y-12829698D01*
X14622562Y-12829698D02*
X14622562Y-12858269D01*
X14622562Y-12858269D02*
X14613039Y-12896365D01*
X14613039Y-12896365D02*
X14603515Y-12915412D01*
X14603515Y-12915412D02*
X14584467Y-12934460D01*
X14584467Y-12934460D02*
X14555896Y-12943984D01*
X14555896Y-12943984D02*
X14508277Y-12943984D01*
X14708277Y-12943984D02*
X14708277Y-12810650D01*
X14708277Y-12848746D02*
X14717801Y-12829698D01*
X14717801Y-12829698D02*
X14727324Y-12820174D01*
X14727324Y-12820174D02*
X14746372Y-12810650D01*
X14746372Y-12810650D02*
X14765420Y-12810650D01*
X14832086Y-12943984D02*
X14832086Y-12810650D01*
X14832086Y-12743984D02*
X14822562Y-12753508D01*
X14822562Y-12753508D02*
X14832086Y-12763031D01*
X14832086Y-12763031D02*
X14841610Y-12753508D01*
X14841610Y-12753508D02*
X14832086Y-12743984D01*
X14832086Y-12743984D02*
X14832086Y-12763031D01*
X14955896Y-12943984D02*
X14936848Y-12934460D01*
X14936848Y-12934460D02*
X14927324Y-12915412D01*
X14927324Y-12915412D02*
X14927324Y-12743984D01*
X15060658Y-12943984D02*
X15041610Y-12934460D01*
X15041610Y-12934460D02*
X15032086Y-12915412D01*
X15032086Y-12915412D02*
X15032086Y-12743984D01*
X15289229Y-12943984D02*
X15289229Y-12743984D01*
X15289229Y-12743984D02*
X15355896Y-12886841D01*
X15355896Y-12886841D02*
X15422562Y-12743984D01*
X15422562Y-12743984D02*
X15422562Y-12943984D01*
X15603515Y-12943984D02*
X15603515Y-12839222D01*
X15603515Y-12839222D02*
X15593991Y-12820174D01*
X15593991Y-12820174D02*
X15574943Y-12810650D01*
X15574943Y-12810650D02*
X15536848Y-12810650D01*
X15536848Y-12810650D02*
X15517801Y-12820174D01*
X15603515Y-12934460D02*
X15584467Y-12943984D01*
X15584467Y-12943984D02*
X15536848Y-12943984D01*
X15536848Y-12943984D02*
X15517801Y-12934460D01*
X15517801Y-12934460D02*
X15508277Y-12915412D01*
X15508277Y-12915412D02*
X15508277Y-12896365D01*
X15508277Y-12896365D02*
X15517801Y-12877317D01*
X15517801Y-12877317D02*
X15536848Y-12867793D01*
X15536848Y-12867793D02*
X15584467Y-12867793D01*
X15584467Y-12867793D02*
X15603515Y-12858269D01*
X15698753Y-12810650D02*
X15698753Y-13010650D01*
X15698753Y-12820174D02*
X15717801Y-12810650D01*
X15717801Y-12810650D02*
X15755896Y-12810650D01*
X15755896Y-12810650D02*
X15774943Y-12820174D01*
X15774943Y-12820174D02*
X15784467Y-12829698D01*
X15784467Y-12829698D02*
X15793991Y-12848746D01*
X15793991Y-12848746D02*
X15793991Y-12905888D01*
X15793991Y-12905888D02*
X15784467Y-12924936D01*
X15784467Y-12924936D02*
X15774943Y-12934460D01*
X15774943Y-12934460D02*
X15755896Y-12943984D01*
X15755896Y-12943984D02*
X15717801Y-12943984D01*
X15717801Y-12943984D02*
X15698753Y-12934460D01*
X15879705Y-12924936D02*
X15889229Y-12934460D01*
X15889229Y-12934460D02*
X15879705Y-12943984D01*
X15879705Y-12943984D02*
X15870182Y-12934460D01*
X15870182Y-12934460D02*
X15879705Y-12924936D01*
X15879705Y-12924936D02*
X15879705Y-12943984D01*
X15879705Y-12820174D02*
X15889229Y-12829698D01*
X15889229Y-12829698D02*
X15879705Y-12839222D01*
X15879705Y-12839222D02*
X15870182Y-12829698D01*
X15870182Y-12829698D02*
X15879705Y-12820174D01*
X15879705Y-12820174D02*
X15879705Y-12839222D01*
D12*
X14132300Y-13214900D02*
X14247500Y-13330100D01*
X14247500Y-13214900D02*
X14132300Y-13330100D01*
D11*
X14613039Y-13363984D02*
X14498753Y-13363984D01*
X14555896Y-13363984D02*
X14555896Y-13163984D01*
X14555896Y-13163984D02*
X14536848Y-13192555D01*
X14536848Y-13192555D02*
X14517801Y-13211603D01*
X14517801Y-13211603D02*
X14498753Y-13221127D01*
X14698753Y-13344936D02*
X14708277Y-13354460D01*
X14708277Y-13354460D02*
X14698753Y-13363984D01*
X14698753Y-13363984D02*
X14689229Y-13354460D01*
X14689229Y-13354460D02*
X14698753Y-13344936D01*
X14698753Y-13344936D02*
X14698753Y-13363984D01*
X14898753Y-13363984D02*
X14784467Y-13363984D01*
X14841610Y-13363984D02*
X14841610Y-13163984D01*
X14841610Y-13163984D02*
X14822562Y-13192555D01*
X14822562Y-13192555D02*
X14803515Y-13211603D01*
X14803515Y-13211603D02*
X14784467Y-13221127D01*
X15079705Y-13163984D02*
X14984467Y-13163984D01*
X14984467Y-13163984D02*
X14974943Y-13259222D01*
X14974943Y-13259222D02*
X14984467Y-13249698D01*
X14984467Y-13249698D02*
X15003515Y-13240174D01*
X15003515Y-13240174D02*
X15051134Y-13240174D01*
X15051134Y-13240174D02*
X15070182Y-13249698D01*
X15070182Y-13249698D02*
X15079705Y-13259222D01*
X15079705Y-13259222D02*
X15089229Y-13278269D01*
X15089229Y-13278269D02*
X15089229Y-13325888D01*
X15089229Y-13325888D02*
X15079705Y-13344936D01*
X15079705Y-13344936D02*
X15070182Y-13354460D01*
X15070182Y-13354460D02*
X15051134Y-13363984D01*
X15051134Y-13363984D02*
X15003515Y-13363984D01*
X15003515Y-13363984D02*
X14984467Y-13354460D01*
X14984467Y-13354460D02*
X14974943Y-13344936D01*
X15165420Y-13183031D02*
X15174943Y-13173508D01*
X15174943Y-13173508D02*
X15193991Y-13163984D01*
X15193991Y-13163984D02*
X15241610Y-13163984D01*
X15241610Y-13163984D02*
X15260658Y-13173508D01*
X15260658Y-13173508D02*
X15270182Y-13183031D01*
X15270182Y-13183031D02*
X15279705Y-13202079D01*
X15279705Y-13202079D02*
X15279705Y-13221127D01*
X15279705Y-13221127D02*
X15270182Y-13249698D01*
X15270182Y-13249698D02*
X15155896Y-13363984D01*
X15155896Y-13363984D02*
X15279705Y-13363984D01*
X15365420Y-13363984D02*
X15365420Y-13230650D01*
X15365420Y-13249698D02*
X15374943Y-13240174D01*
X15374943Y-13240174D02*
X15393991Y-13230650D01*
X15393991Y-13230650D02*
X15422563Y-13230650D01*
X15422563Y-13230650D02*
X15441610Y-13240174D01*
X15441610Y-13240174D02*
X15451134Y-13259222D01*
X15451134Y-13259222D02*
X15451134Y-13363984D01*
X15451134Y-13259222D02*
X15460658Y-13240174D01*
X15460658Y-13240174D02*
X15479705Y-13230650D01*
X15479705Y-13230650D02*
X15508277Y-13230650D01*
X15508277Y-13230650D02*
X15527324Y-13240174D01*
X15527324Y-13240174D02*
X15536848Y-13259222D01*
X15536848Y-13259222D02*
X15536848Y-13363984D01*
X15632086Y-13363984D02*
X15632086Y-13230650D01*
X15632086Y-13249698D02*
X15641610Y-13240174D01*
X15641610Y-13240174D02*
X15660658Y-13230650D01*
X15660658Y-13230650D02*
X15689229Y-13230650D01*
X15689229Y-13230650D02*
X15708277Y-13240174D01*
X15708277Y-13240174D02*
X15717801Y-13259222D01*
X15717801Y-13259222D02*
X15717801Y-13363984D01*
X15717801Y-13259222D02*
X15727324Y-13240174D01*
X15727324Y-13240174D02*
X15746372Y-13230650D01*
X15746372Y-13230650D02*
X15774943Y-13230650D01*
X15774943Y-13230650D02*
X15793991Y-13240174D01*
X15793991Y-13240174D02*
X15803515Y-13259222D01*
X15803515Y-13259222D02*
X15803515Y-13363984D01*
X16193991Y-13154460D02*
X16022563Y-13411603D01*
X16451134Y-13163984D02*
X16470182Y-13163984D01*
X16470182Y-13163984D02*
X16489229Y-13173508D01*
X16489229Y-13173508D02*
X16498753Y-13183031D01*
X16498753Y-13183031D02*
X16508277Y-13202079D01*
X16508277Y-13202079D02*
X16517801Y-13240174D01*
X16517801Y-13240174D02*
X16517801Y-13287793D01*
X16517801Y-13287793D02*
X16508277Y-13325888D01*
X16508277Y-13325888D02*
X16498753Y-13344936D01*
X16498753Y-13344936D02*
X16489229Y-13354460D01*
X16489229Y-13354460D02*
X16470182Y-13363984D01*
X16470182Y-13363984D02*
X16451134Y-13363984D01*
X16451134Y-13363984D02*
X16432086Y-13354460D01*
X16432086Y-13354460D02*
X16422563Y-13344936D01*
X16422563Y-13344936D02*
X16413039Y-13325888D01*
X16413039Y-13325888D02*
X16403515Y-13287793D01*
X16403515Y-13287793D02*
X16403515Y-13240174D01*
X16403515Y-13240174D02*
X16413039Y-13202079D01*
X16413039Y-13202079D02*
X16422563Y-13183031D01*
X16422563Y-13183031D02*
X16432086Y-13173508D01*
X16432086Y-13173508D02*
X16451134Y-13163984D01*
X16603515Y-13344936D02*
X16613039Y-13354460D01*
X16613039Y-13354460D02*
X16603515Y-13363984D01*
X16603515Y-13363984D02*
X16593991Y-13354460D01*
X16593991Y-13354460D02*
X16603515Y-13344936D01*
X16603515Y-13344936D02*
X16603515Y-13363984D01*
X16736848Y-13163984D02*
X16755896Y-13163984D01*
X16755896Y-13163984D02*
X16774944Y-13173508D01*
X16774944Y-13173508D02*
X16784468Y-13183031D01*
X16784468Y-13183031D02*
X16793991Y-13202079D01*
X16793991Y-13202079D02*
X16803515Y-13240174D01*
X16803515Y-13240174D02*
X16803515Y-13287793D01*
X16803515Y-13287793D02*
X16793991Y-13325888D01*
X16793991Y-13325888D02*
X16784468Y-13344936D01*
X16784468Y-13344936D02*
X16774944Y-13354460D01*
X16774944Y-13354460D02*
X16755896Y-13363984D01*
X16755896Y-13363984D02*
X16736848Y-13363984D01*
X16736848Y-13363984D02*
X16717801Y-13354460D01*
X16717801Y-13354460D02*
X16708277Y-13344936D01*
X16708277Y-13344936D02*
X16698753Y-13325888D01*
X16698753Y-13325888D02*
X16689229Y-13287793D01*
X16689229Y-13287793D02*
X16689229Y-13240174D01*
X16689229Y-13240174D02*
X16698753Y-13202079D01*
X16698753Y-13202079D02*
X16708277Y-13183031D01*
X16708277Y-13183031D02*
X16717801Y-13173508D01*
X16717801Y-13173508D02*
X16736848Y-13163984D01*
X16974944Y-13230650D02*
X16974944Y-13363984D01*
X16927325Y-13154460D02*
X16879706Y-13297317D01*
X16879706Y-13297317D02*
X17003515Y-13297317D01*
X17174944Y-13163984D02*
X17079706Y-13163984D01*
X17079706Y-13163984D02*
X17070182Y-13259222D01*
X17070182Y-13259222D02*
X17079706Y-13249698D01*
X17079706Y-13249698D02*
X17098753Y-13240174D01*
X17098753Y-13240174D02*
X17146372Y-13240174D01*
X17146372Y-13240174D02*
X17165420Y-13249698D01*
X17165420Y-13249698D02*
X17174944Y-13259222D01*
X17174944Y-13259222D02*
X17184468Y-13278269D01*
X17184468Y-13278269D02*
X17184468Y-13325888D01*
X17184468Y-13325888D02*
X17174944Y-13344936D01*
X17174944Y-13344936D02*
X17165420Y-13354460D01*
X17165420Y-13354460D02*
X17146372Y-13363984D01*
X17146372Y-13363984D02*
X17098753Y-13363984D01*
X17098753Y-13363984D02*
X17079706Y-13354460D01*
X17079706Y-13354460D02*
X17070182Y-13344936D01*
X17355896Y-13230650D02*
X17355896Y-13363984D01*
X17308277Y-13154460D02*
X17260658Y-13297317D01*
X17260658Y-13297317D02*
X17384468Y-13297317D01*
X17451134Y-13163984D02*
X17451134Y-13202079D01*
X17527325Y-13163984D02*
X17527325Y-13202079D01*
X17822563Y-13440174D02*
X17813039Y-13430650D01*
X17813039Y-13430650D02*
X17793991Y-13402079D01*
X17793991Y-13402079D02*
X17784468Y-13383031D01*
X17784468Y-13383031D02*
X17774944Y-13354460D01*
X17774944Y-13354460D02*
X17765420Y-13306841D01*
X17765420Y-13306841D02*
X17765420Y-13268746D01*
X17765420Y-13268746D02*
X17774944Y-13221127D01*
X17774944Y-13221127D02*
X17784468Y-13192555D01*
X17784468Y-13192555D02*
X17793991Y-13173508D01*
X17793991Y-13173508D02*
X17813039Y-13144936D01*
X17813039Y-13144936D02*
X17822563Y-13135412D01*
X17889230Y-13183031D02*
X17898753Y-13173508D01*
X17898753Y-13173508D02*
X17917801Y-13163984D01*
X17917801Y-13163984D02*
X17965420Y-13163984D01*
X17965420Y-13163984D02*
X17984468Y-13173508D01*
X17984468Y-13173508D02*
X17993991Y-13183031D01*
X17993991Y-13183031D02*
X18003515Y-13202079D01*
X18003515Y-13202079D02*
X18003515Y-13221127D01*
X18003515Y-13221127D02*
X17993991Y-13249698D01*
X17993991Y-13249698D02*
X17879706Y-13363984D01*
X17879706Y-13363984D02*
X18003515Y-13363984D01*
X18241611Y-13363984D02*
X18241611Y-13163984D01*
X18327325Y-13363984D02*
X18327325Y-13259222D01*
X18327325Y-13259222D02*
X18317801Y-13240174D01*
X18317801Y-13240174D02*
X18298753Y-13230650D01*
X18298753Y-13230650D02*
X18270182Y-13230650D01*
X18270182Y-13230650D02*
X18251134Y-13240174D01*
X18251134Y-13240174D02*
X18241611Y-13249698D01*
X18451134Y-13363984D02*
X18432087Y-13354460D01*
X18432087Y-13354460D02*
X18422563Y-13344936D01*
X18422563Y-13344936D02*
X18413039Y-13325888D01*
X18413039Y-13325888D02*
X18413039Y-13268746D01*
X18413039Y-13268746D02*
X18422563Y-13249698D01*
X18422563Y-13249698D02*
X18432087Y-13240174D01*
X18432087Y-13240174D02*
X18451134Y-13230650D01*
X18451134Y-13230650D02*
X18479706Y-13230650D01*
X18479706Y-13230650D02*
X18498753Y-13240174D01*
X18498753Y-13240174D02*
X18508277Y-13249698D01*
X18508277Y-13249698D02*
X18517801Y-13268746D01*
X18517801Y-13268746D02*
X18517801Y-13325888D01*
X18517801Y-13325888D02*
X18508277Y-13344936D01*
X18508277Y-13344936D02*
X18498753Y-13354460D01*
X18498753Y-13354460D02*
X18479706Y-13363984D01*
X18479706Y-13363984D02*
X18451134Y-13363984D01*
X18632087Y-13363984D02*
X18613039Y-13354460D01*
X18613039Y-13354460D02*
X18603515Y-13335412D01*
X18603515Y-13335412D02*
X18603515Y-13163984D01*
X18784468Y-13354460D02*
X18765420Y-13363984D01*
X18765420Y-13363984D02*
X18727325Y-13363984D01*
X18727325Y-13363984D02*
X18708277Y-13354460D01*
X18708277Y-13354460D02*
X18698753Y-13335412D01*
X18698753Y-13335412D02*
X18698753Y-13259222D01*
X18698753Y-13259222D02*
X18708277Y-13240174D01*
X18708277Y-13240174D02*
X18727325Y-13230650D01*
X18727325Y-13230650D02*
X18765420Y-13230650D01*
X18765420Y-13230650D02*
X18784468Y-13240174D01*
X18784468Y-13240174D02*
X18793992Y-13259222D01*
X18793992Y-13259222D02*
X18793992Y-13278269D01*
X18793992Y-13278269D02*
X18698753Y-13297317D01*
X18870182Y-13354460D02*
X18889230Y-13363984D01*
X18889230Y-13363984D02*
X18927325Y-13363984D01*
X18927325Y-13363984D02*
X18946373Y-13354460D01*
X18946373Y-13354460D02*
X18955896Y-13335412D01*
X18955896Y-13335412D02*
X18955896Y-13325888D01*
X18955896Y-13325888D02*
X18946373Y-13306841D01*
X18946373Y-13306841D02*
X18927325Y-13297317D01*
X18927325Y-13297317D02*
X18898753Y-13297317D01*
X18898753Y-13297317D02*
X18879706Y-13287793D01*
X18879706Y-13287793D02*
X18870182Y-13268746D01*
X18870182Y-13268746D02*
X18870182Y-13259222D01*
X18870182Y-13259222D02*
X18879706Y-13240174D01*
X18879706Y-13240174D02*
X18898753Y-13230650D01*
X18898753Y-13230650D02*
X18927325Y-13230650D01*
X18927325Y-13230650D02*
X18946373Y-13240174D01*
X19022563Y-13440174D02*
X19032087Y-13430650D01*
X19032087Y-13430650D02*
X19051134Y-13402079D01*
X19051134Y-13402079D02*
X19060658Y-13383031D01*
X19060658Y-13383031D02*
X19070182Y-13354460D01*
X19070182Y-13354460D02*
X19079706Y-13306841D01*
X19079706Y-13306841D02*
X19079706Y-13268746D01*
X19079706Y-13268746D02*
X19070182Y-13221127D01*
X19070182Y-13221127D02*
X19060658Y-13192555D01*
X19060658Y-13192555D02*
X19051134Y-13173508D01*
X19051134Y-13173508D02*
X19032087Y-13144936D01*
X19032087Y-13144936D02*
X19022563Y-13135412D01*
X19384468Y-13440174D02*
X19374944Y-13430650D01*
X19374944Y-13430650D02*
X19355896Y-13402079D01*
X19355896Y-13402079D02*
X19346373Y-13383031D01*
X19346373Y-13383031D02*
X19336849Y-13354460D01*
X19336849Y-13354460D02*
X19327325Y-13306841D01*
X19327325Y-13306841D02*
X19327325Y-13268746D01*
X19327325Y-13268746D02*
X19336849Y-13221127D01*
X19336849Y-13221127D02*
X19346373Y-13192555D01*
X19346373Y-13192555D02*
X19355896Y-13173508D01*
X19355896Y-13173508D02*
X19374944Y-13144936D01*
X19374944Y-13144936D02*
X19384468Y-13135412D01*
X19460658Y-13230650D02*
X19460658Y-13363984D01*
X19460658Y-13249698D02*
X19470182Y-13240174D01*
X19470182Y-13240174D02*
X19489230Y-13230650D01*
X19489230Y-13230650D02*
X19517801Y-13230650D01*
X19517801Y-13230650D02*
X19536849Y-13240174D01*
X19536849Y-13240174D02*
X19546373Y-13259222D01*
X19546373Y-13259222D02*
X19546373Y-13363984D01*
X19670182Y-13363984D02*
X19651134Y-13354460D01*
X19651134Y-13354460D02*
X19641611Y-13344936D01*
X19641611Y-13344936D02*
X19632087Y-13325888D01*
X19632087Y-13325888D02*
X19632087Y-13268746D01*
X19632087Y-13268746D02*
X19641611Y-13249698D01*
X19641611Y-13249698D02*
X19651134Y-13240174D01*
X19651134Y-13240174D02*
X19670182Y-13230650D01*
X19670182Y-13230650D02*
X19698754Y-13230650D01*
X19698754Y-13230650D02*
X19717801Y-13240174D01*
X19717801Y-13240174D02*
X19727325Y-13249698D01*
X19727325Y-13249698D02*
X19736849Y-13268746D01*
X19736849Y-13268746D02*
X19736849Y-13325888D01*
X19736849Y-13325888D02*
X19727325Y-13344936D01*
X19727325Y-13344936D02*
X19717801Y-13354460D01*
X19717801Y-13354460D02*
X19698754Y-13363984D01*
X19698754Y-13363984D02*
X19670182Y-13363984D01*
X19793992Y-13230650D02*
X19870182Y-13230650D01*
X19822563Y-13163984D02*
X19822563Y-13335412D01*
X19822563Y-13335412D02*
X19832087Y-13354460D01*
X19832087Y-13354460D02*
X19851134Y-13363984D01*
X19851134Y-13363984D02*
X19870182Y-13363984D01*
X20089230Y-13230650D02*
X20089230Y-13430650D01*
X20089230Y-13240174D02*
X20108277Y-13230650D01*
X20108277Y-13230650D02*
X20146373Y-13230650D01*
X20146373Y-13230650D02*
X20165420Y-13240174D01*
X20165420Y-13240174D02*
X20174944Y-13249698D01*
X20174944Y-13249698D02*
X20184468Y-13268746D01*
X20184468Y-13268746D02*
X20184468Y-13325888D01*
X20184468Y-13325888D02*
X20174944Y-13344936D01*
X20174944Y-13344936D02*
X20165420Y-13354460D01*
X20165420Y-13354460D02*
X20146373Y-13363984D01*
X20146373Y-13363984D02*
X20108277Y-13363984D01*
X20108277Y-13363984D02*
X20089230Y-13354460D01*
X20298754Y-13363984D02*
X20279706Y-13354460D01*
X20279706Y-13354460D02*
X20270182Y-13335412D01*
X20270182Y-13335412D02*
X20270182Y-13163984D01*
X20460658Y-13363984D02*
X20460658Y-13259222D01*
X20460658Y-13259222D02*
X20451135Y-13240174D01*
X20451135Y-13240174D02*
X20432087Y-13230650D01*
X20432087Y-13230650D02*
X20393992Y-13230650D01*
X20393992Y-13230650D02*
X20374944Y-13240174D01*
X20460658Y-13354460D02*
X20441611Y-13363984D01*
X20441611Y-13363984D02*
X20393992Y-13363984D01*
X20393992Y-13363984D02*
X20374944Y-13354460D01*
X20374944Y-13354460D02*
X20365420Y-13335412D01*
X20365420Y-13335412D02*
X20365420Y-13316365D01*
X20365420Y-13316365D02*
X20374944Y-13297317D01*
X20374944Y-13297317D02*
X20393992Y-13287793D01*
X20393992Y-13287793D02*
X20441611Y-13287793D01*
X20441611Y-13287793D02*
X20460658Y-13278269D01*
X20527325Y-13230650D02*
X20603515Y-13230650D01*
X20555896Y-13163984D02*
X20555896Y-13335412D01*
X20555896Y-13335412D02*
X20565420Y-13354460D01*
X20565420Y-13354460D02*
X20584468Y-13363984D01*
X20584468Y-13363984D02*
X20603515Y-13363984D01*
X20746373Y-13354460D02*
X20727325Y-13363984D01*
X20727325Y-13363984D02*
X20689230Y-13363984D01*
X20689230Y-13363984D02*
X20670182Y-13354460D01*
X20670182Y-13354460D02*
X20660658Y-13335412D01*
X20660658Y-13335412D02*
X20660658Y-13259222D01*
X20660658Y-13259222D02*
X20670182Y-13240174D01*
X20670182Y-13240174D02*
X20689230Y-13230650D01*
X20689230Y-13230650D02*
X20727325Y-13230650D01*
X20727325Y-13230650D02*
X20746373Y-13240174D01*
X20746373Y-13240174D02*
X20755896Y-13259222D01*
X20755896Y-13259222D02*
X20755896Y-13278269D01*
X20755896Y-13278269D02*
X20660658Y-13297317D01*
X20927325Y-13363984D02*
X20927325Y-13163984D01*
X20927325Y-13354460D02*
X20908277Y-13363984D01*
X20908277Y-13363984D02*
X20870182Y-13363984D01*
X20870182Y-13363984D02*
X20851135Y-13354460D01*
X20851135Y-13354460D02*
X20841611Y-13344936D01*
X20841611Y-13344936D02*
X20832087Y-13325888D01*
X20832087Y-13325888D02*
X20832087Y-13268746D01*
X20832087Y-13268746D02*
X20841611Y-13249698D01*
X20841611Y-13249698D02*
X20851135Y-13240174D01*
X20851135Y-13240174D02*
X20870182Y-13230650D01*
X20870182Y-13230650D02*
X20908277Y-13230650D01*
X20908277Y-13230650D02*
X20927325Y-13240174D01*
X21003516Y-13440174D02*
X21013039Y-13430650D01*
X21013039Y-13430650D02*
X21032087Y-13402079D01*
X21032087Y-13402079D02*
X21041611Y-13383031D01*
X21041611Y-13383031D02*
X21051135Y-13354460D01*
X21051135Y-13354460D02*
X21060658Y-13306841D01*
X21060658Y-13306841D02*
X21060658Y-13268746D01*
X21060658Y-13268746D02*
X21051135Y-13221127D01*
X21051135Y-13221127D02*
X21041611Y-13192555D01*
X21041611Y-13192555D02*
X21032087Y-13173508D01*
X21032087Y-13173508D02*
X21013039Y-13144936D01*
X21013039Y-13144936D02*
X21003516Y-13135412D01*
M02*
