M48
; DRILL file {KiCad 8.0.1} date 2024-04-03T20:26:17-0500
; FORMAT={-:-/ absolute / inch / decimal}
; #@! TF.CreationDate,2024-04-03T20:26:17-05:00
; #@! TF.GenerationSoftware,Kicad,Pcbnew,8.0.1
; #@! TF.FileFunction,Plated,1,2,PTH
FMAT,2
INCH
; #@! TA.AperFunction,Plated,PTH,ViaDrill
T1C0.0118
; #@! TA.AperFunction,Plated,PTH,ViaDrill
T2C0.0157
; #@! TA.AperFunction,Plated,PTH,ViaDrill
T3C0.0197
; #@! TA.AperFunction,Plated,PTH,ComponentDrill
T4C0.0394
%
G90
G05
T1
X5.6496Y-3.4488
X5.6732Y-3.4488
X5.689Y-3.6457
X5.6969Y-3.4488
X5.7126Y-3.6457
X5.7205Y-3.4488
X5.7598Y-3.9016
X5.7677Y-3.7756
X5.7717Y-3.3307
X5.7717Y-3.3543
X5.7953Y-3.3307
X5.7953Y-3.3543
X5.8031Y-4.3976
X5.8031Y-4.437
X5.8189Y-3.3543
X5.8268Y-4.3976
X5.8504Y-4.3976
X5.8661Y-4.5059
X5.8661Y-4.5315
X5.8701Y-3.8425
X5.8702Y-3.4764
X5.8713Y-3.8972
X5.874Y-4.3976
X5.878Y-3.7047
X5.8879Y-3.4173
X5.8898Y-3.3701
X5.8898Y-3.3937
X5.8898Y-4.5059
X5.8898Y-4.5315
X5.8898Y-4.5827
X5.8976Y-4.255
X5.9055Y-4.2087
X5.9114Y-3.4193
X5.9134Y-3.3661
X5.9134Y-3.3937
X5.9173Y-4.5453
X5.9278Y-4.2309
X5.9282Y-3.6723
X5.9291Y-4.2677
X5.9291Y-4.3189
X5.9409Y-4.5453
X5.9442Y-3.8937
X5.9449Y-3.9409
X5.9488Y-3.7205
X5.9488Y-4.1654
X5.9567Y-4.252
X5.9587Y-4.0059
X5.9646Y-4.5453
X5.9806Y-4.1654
X5.9882Y-4.5453
X5.9931Y-3.7096
X6.0866Y-4.1457
X6.122Y-4.1457
X6.122Y-4.185
X6.1535Y-4.185
X6.1654Y-4.3435
X6.1929Y-3.9724
X6.2244Y-4.2126
X6.2244Y-4.2362
X6.2244Y-4.2598
X6.2323Y-4.0236
X6.2598Y-3.378
X6.2717Y-4.4567
X6.2835Y-3.378
X6.2953Y-3.6299
X6.3031Y-3.5197
X6.3071Y-3.378
X6.3189Y-3.6299
X6.3268Y-3.5197
X6.3307Y-3.378
X6.3307Y-4.0276
X6.3425Y-3.6299
X6.3425Y-4.685
X6.3504Y-3.5197
X6.3622Y-4.0276
X6.3661Y-3.6299
X6.374Y-3.5197
X6.374Y-4.2677
X6.3937Y-4.0276
X6.4055Y-4.2677
X6.4291Y-3.4055
X6.4291Y-4.1024
X6.437Y-4.2047
X6.4409Y-4.0276
X6.4449Y-3.7205
X6.4449Y-3.7677
X6.4488Y-3.4803
X6.4685Y-4.5118
X6.4685Y-4.5354
X6.4685Y-4.5591
X6.4764Y-4.7087
X6.4921Y-4.4724
X6.4921Y-4.5591
X6.4921Y-4.5827
X6.4921Y-4.6063
X6.5079Y-4.622
X6.5315Y-4.3858
X6.5315Y-4.4094
X6.5315Y-4.622
X6.5551Y-4.3858
X6.5551Y-4.4094
X6.5551Y-4.622
X6.6181Y-4.4252
X6.626Y-4.5591
X6.6417Y-4.4252
X6.6496Y-4.5591
X6.6654Y-4.4252
X6.6732Y-4.5591
T2
X5.7205Y-4.748
X5.7205Y-4.7795
X5.7205Y-4.811
X5.8071Y-4.0945
X5.8386Y-4.0945
X5.8701Y-4.0945
X5.9262Y-3.4753
X5.9409Y-3.5118
X6.0276Y-3.2953
X6.0354Y-3.4803
X6.0354Y-4.4724
X6.0669Y-4.4724
X6.1929Y-4.8425
X6.3307Y-4.7835
T3
X6.6535Y-4.5118
T4
X5.6626Y-3.2028
X5.7626Y-3.2028
X5.7646Y-4.9055
X5.8626Y-3.2028
X5.8646Y-4.9055
X5.9626Y-3.2028
X5.9646Y-4.9055
X6.0626Y-3.2028
X6.0646Y-4.9055
X6.1626Y-3.2028
X6.1646Y-4.9055
X6.2626Y-3.2028
X6.2646Y-4.9055
X6.3626Y-3.2028
X6.3646Y-4.9055
X6.4626Y-3.2028
X6.4646Y-4.9055
X6.5626Y-3.2028
X6.6626Y-3.2028
M30
